<svg width="755" height="347" viewBox="0 0 755 347" fill="none" xmlns="http://www.w3.org/2000/svg">
<path d="M34.088 304.832C34.088 305.6 33.9173 306.368 33.576 307.136C33.2347 307.904 32.744 308.629 32.104 309.312C31.4853 309.995 30.92 310.56 30.408 311.008C29.896 311.456 29.2987 311.947 28.616 312.48L21.864 317.536H34.088V320H18.472V316.992L26.696 310.88C27.336 310.389 27.784 310.037 28.04 309.824C28.3173 309.611 28.7227 309.259 29.256 308.768C29.8107 308.277 30.216 307.861 30.472 307.52C30.728 307.179 30.9627 306.763 31.176 306.272C31.4107 305.781 31.528 305.301 31.528 304.832C31.528 303.36 31.016 302.155 29.992 301.216C28.968 300.277 27.72 299.808 26.248 299.808C23.4747 299.808 21.6293 301.355 20.712 304.448L18.216 303.68C18.792 301.781 19.752 300.235 21.096 299.04C22.44 297.845 24.1573 297.248 26.248 297.248C28.424 297.248 30.2693 297.963 31.784 299.392C33.32 300.821 34.088 302.635 34.088 304.832ZM39.0573 309.664C39.0573 312.096 39.6973 314.101 40.9773 315.68C42.2573 317.237 43.8146 318.016 45.6493 318.016C47.4839 318.016 49.0413 317.237 50.3213 315.68C51.6013 314.101 52.2413 312.096 52.2413 309.664V307.968C52.2413 305.536 51.6013 303.541 50.3213 301.984C49.0413 300.405 47.4839 299.616 45.6493 299.616C43.8146 299.616 42.2573 300.405 40.9773 301.984C39.6973 303.541 39.0573 305.536 39.0573 307.968V309.664ZM36.4973 309.664V307.968C36.4973 304.811 37.3826 302.208 39.1533 300.16C40.9239 298.091 43.0893 297.056 45.6493 297.056C48.2093 297.056 50.3746 298.091 52.1453 300.16C53.9159 302.208 54.8013 304.811 54.8013 307.968V309.664C54.8013 312.821 53.9159 315.435 52.1453 317.504C50.3746 319.552 48.2093 320.576 45.6493 320.576C43.0893 320.576 40.9133 319.552 39.1213 317.504C37.3506 315.435 36.4759 312.821 36.4973 309.664ZM73.1193 304.832C73.1193 305.6 72.9486 306.368 72.6073 307.136C72.2659 307.904 71.7753 308.629 71.1353 309.312C70.5166 309.995 69.9513 310.56 69.4393 311.008C68.9273 311.456 68.3299 311.947 67.6473 312.48L60.8953 317.536H73.1193V320H57.5033V316.992L65.7273 310.88C66.3673 310.389 66.8153 310.037 67.0713 309.824C67.3486 309.611 67.7539 309.259 68.2873 308.768C68.8419 308.277 69.2473 307.861 69.5033 307.52C69.7593 307.179 69.9939 306.763 70.2073 306.272C70.4419 305.781 70.5593 305.301 70.5593 304.832C70.5593 303.36 70.0473 302.155 69.0233 301.216C67.9993 300.277 66.7513 299.808 65.2793 299.808C62.5059 299.808 60.6606 301.355 59.7433 304.448L57.2473 303.68C57.8233 301.781 58.7833 300.235 60.1273 299.04C61.4713 297.845 63.1886 297.248 65.2793 297.248C67.4553 297.248 69.3006 297.963 70.8153 299.392C72.3513 300.821 73.1193 302.635 73.1193 304.832ZM91.4005 304.832C91.4005 305.6 91.2298 306.368 90.8885 307.136C90.5472 307.904 90.0565 308.629 89.4165 309.312C88.7978 309.995 88.2325 310.56 87.7205 311.008C87.2085 311.456 86.6112 311.947 85.9285 312.48L79.1765 317.536H91.4005V320H75.7845V316.992L84.0085 310.88C84.6485 310.389 85.0965 310.037 85.3525 309.824C85.6298 309.611 86.0352 309.259 86.5685 308.768C87.1232 308.277 87.5285 307.861 87.7845 307.52C88.0405 307.179 88.2752 306.763 88.4885 306.272C88.7232 305.781 88.8405 305.301 88.8405 304.832C88.8405 303.36 88.3285 302.155 87.3045 301.216C86.2805 300.277 85.0325 299.808 83.5605 299.808C80.7872 299.808 78.9418 301.355 78.0245 304.448L75.5285 303.68C76.1045 301.781 77.0645 300.235 78.4085 299.04C79.7525 297.845 81.4698 297.248 83.5605 297.248C85.7365 297.248 87.5818 297.963 89.0965 299.392C90.6325 300.821 91.4005 302.635 91.4005 304.832Z" fill="#002853"/>
<path d="M247.088 304.832C247.088 305.6 246.917 306.368 246.576 307.136C246.235 307.904 245.744 308.629 245.104 309.312C244.485 309.995 243.92 310.56 243.408 311.008C242.896 311.456 242.299 311.947 241.616 312.48L234.864 317.536H247.088V320H231.472V316.992L239.696 310.88C240.336 310.389 240.784 310.037 241.04 309.824C241.317 309.611 241.723 309.259 242.256 308.768C242.811 308.277 243.216 307.861 243.472 307.52C243.728 307.179 243.963 306.763 244.176 306.272C244.411 305.781 244.528 305.301 244.528 304.832C244.528 303.36 244.016 302.155 242.992 301.216C241.968 300.277 240.72 299.808 239.248 299.808C236.475 299.808 234.629 301.355 233.712 304.448L231.216 303.68C231.792 301.781 232.752 300.235 234.096 299.04C235.44 297.845 237.157 297.248 239.248 297.248C241.424 297.248 243.269 297.963 244.784 299.392C246.32 300.821 247.088 302.635 247.088 304.832ZM252.057 309.664C252.057 312.096 252.697 314.101 253.977 315.68C255.257 317.237 256.815 318.016 258.649 318.016C260.484 318.016 262.041 317.237 263.321 315.68C264.601 314.101 265.241 312.096 265.241 309.664V307.968C265.241 305.536 264.601 303.541 263.321 301.984C262.041 300.405 260.484 299.616 258.649 299.616C256.815 299.616 255.257 300.405 253.977 301.984C252.697 303.541 252.057 305.536 252.057 307.968V309.664ZM249.497 309.664V307.968C249.497 304.811 250.383 302.208 252.153 300.16C253.924 298.091 256.089 297.056 258.649 297.056C261.209 297.056 263.375 298.091 265.145 300.16C266.916 302.208 267.801 304.811 267.801 307.968V309.664C267.801 312.821 266.916 315.435 265.145 317.504C263.375 319.552 261.209 320.576 258.649 320.576C256.089 320.576 253.913 319.552 252.121 317.504C250.351 315.435 249.476 312.821 249.497 309.664ZM286.119 304.832C286.119 305.6 285.949 306.368 285.607 307.136C285.266 307.904 284.775 308.629 284.135 309.312C283.517 309.995 282.951 310.56 282.439 311.008C281.927 311.456 281.33 311.947 280.647 312.48L273.895 317.536H286.119V320H270.503V316.992L278.727 310.88C279.367 310.389 279.815 310.037 280.071 309.824C280.349 309.611 280.754 309.259 281.287 308.768C281.842 308.277 282.247 307.861 282.503 307.52C282.759 307.179 282.994 306.763 283.207 306.272C283.442 305.781 283.559 305.301 283.559 304.832C283.559 303.36 283.047 302.155 282.023 301.216C280.999 300.277 279.751 299.808 278.279 299.808C275.506 299.808 273.661 301.355 272.743 304.448L270.247 303.68C270.823 301.781 271.783 300.235 273.127 299.04C274.471 297.845 276.189 297.248 278.279 297.248C280.455 297.248 282.301 297.963 283.815 299.392C285.351 300.821 286.119 302.635 286.119 304.832ZM298.065 306.304C299.985 306.581 301.521 307.349 302.673 308.608C303.825 309.845 304.401 311.424 304.401 313.344C304.401 315.392 303.654 317.077 302.161 318.4C300.667 319.701 298.747 320.352 296.401 320.352C294.459 320.352 292.785 319.808 291.377 318.72C289.969 317.632 289.019 316.203 288.529 314.432L290.929 313.6C291.227 314.923 291.857 315.957 292.817 316.704C293.798 317.429 295.003 317.792 296.433 317.792C298.011 317.792 299.302 317.387 300.305 316.576C301.329 315.744 301.841 314.688 301.841 313.408C301.841 311.787 301.275 310.517 300.145 309.6C299.035 308.661 297.467 308.192 295.441 308.192L294.641 306.368L301.521 300.064H288.785V297.6H304.401V300.608L298.065 306.304Z" fill="#002853"/>
<path d="M460.088 304.832C460.088 305.6 459.917 306.368 459.576 307.136C459.235 307.904 458.744 308.629 458.104 309.312C457.485 309.995 456.92 310.56 456.408 311.008C455.896 311.456 455.299 311.947 454.616 312.48L447.864 317.536H460.088V320H444.472V316.992L452.696 310.88C453.336 310.389 453.784 310.037 454.04 309.824C454.317 309.611 454.723 309.259 455.256 308.768C455.811 308.277 456.216 307.861 456.472 307.52C456.728 307.179 456.963 306.763 457.176 306.272C457.411 305.781 457.528 305.301 457.528 304.832C457.528 303.36 457.016 302.155 455.992 301.216C454.968 300.277 453.72 299.808 452.248 299.808C449.475 299.808 447.629 301.355 446.712 304.448L444.216 303.68C444.792 301.781 445.752 300.235 447.096 299.04C448.44 297.845 450.157 297.248 452.248 297.248C454.424 297.248 456.269 297.963 457.784 299.392C459.32 300.821 460.088 302.635 460.088 304.832ZM465.057 309.664C465.057 312.096 465.697 314.101 466.977 315.68C468.257 317.237 469.815 318.016 471.649 318.016C473.484 318.016 475.041 317.237 476.321 315.68C477.601 314.101 478.241 312.096 478.241 309.664V307.968C478.241 305.536 477.601 303.541 476.321 301.984C475.041 300.405 473.484 299.616 471.649 299.616C469.815 299.616 468.257 300.405 466.977 301.984C465.697 303.541 465.057 305.536 465.057 307.968V309.664ZM462.497 309.664V307.968C462.497 304.811 463.383 302.208 465.153 300.16C466.924 298.091 469.089 297.056 471.649 297.056C474.209 297.056 476.375 298.091 478.145 300.16C479.916 302.208 480.801 304.811 480.801 307.968V309.664C480.801 312.821 479.916 315.435 478.145 317.504C476.375 319.552 474.209 320.576 471.649 320.576C469.089 320.576 466.913 319.552 465.121 317.504C463.351 315.435 462.476 312.821 462.497 309.664ZM499.119 304.832C499.119 305.6 498.949 306.368 498.607 307.136C498.266 307.904 497.775 308.629 497.135 309.312C496.517 309.995 495.951 310.56 495.439 311.008C494.927 311.456 494.33 311.947 493.647 312.48L486.895 317.536H499.119V320H483.503V316.992L491.727 310.88C492.367 310.389 492.815 310.037 493.071 309.824C493.349 309.611 493.754 309.259 494.287 308.768C494.842 308.277 495.247 307.861 495.503 307.52C495.759 307.179 495.994 306.763 496.207 306.272C496.442 305.781 496.559 305.301 496.559 304.832C496.559 303.36 496.047 302.155 495.023 301.216C493.999 300.277 492.751 299.808 491.279 299.808C488.506 299.808 486.661 301.355 485.743 304.448L483.247 303.68C483.823 301.781 484.783 300.235 486.127 299.04C487.471 297.845 489.189 297.248 491.279 297.248C493.455 297.248 495.301 297.963 496.815 299.392C498.351 300.821 499.119 302.635 499.119 304.832ZM503.865 310.88H512.281V300.896L503.865 310.88ZM514.841 297.6V310.88H518.425V313.344H514.841V320H512.281V313.344H501.241V310.464L511.865 297.6H514.841Z" fill="#002853"/>
<path d="M674.088 304.832C674.088 305.6 673.917 306.368 673.576 307.136C673.235 307.904 672.744 308.629 672.104 309.312C671.485 309.995 670.92 310.56 670.408 311.008C669.896 311.456 669.299 311.947 668.616 312.48L661.864 317.536H674.088V320H658.472V316.992L666.696 310.88C667.336 310.389 667.784 310.037 668.04 309.824C668.317 309.611 668.723 309.259 669.256 308.768C669.811 308.277 670.216 307.861 670.472 307.52C670.728 307.179 670.963 306.763 671.176 306.272C671.411 305.781 671.528 305.301 671.528 304.832C671.528 303.36 671.016 302.155 669.992 301.216C668.968 300.277 667.72 299.808 666.248 299.808C663.475 299.808 661.629 301.355 660.712 304.448L658.216 303.68C658.792 301.781 659.752 300.235 661.096 299.04C662.44 297.845 664.157 297.248 666.248 297.248C668.424 297.248 670.269 297.963 671.784 299.392C673.32 300.821 674.088 302.635 674.088 304.832ZM679.057 309.664C679.057 312.096 679.697 314.101 680.977 315.68C682.257 317.237 683.815 318.016 685.649 318.016C687.484 318.016 689.041 317.237 690.321 315.68C691.601 314.101 692.241 312.096 692.241 309.664V307.968C692.241 305.536 691.601 303.541 690.321 301.984C689.041 300.405 687.484 299.616 685.649 299.616C683.815 299.616 682.257 300.405 680.977 301.984C679.697 303.541 679.057 305.536 679.057 307.968V309.664ZM676.497 309.664V307.968C676.497 304.811 677.383 302.208 679.153 300.16C680.924 298.091 683.089 297.056 685.649 297.056C688.209 297.056 690.375 298.091 692.145 300.16C693.916 302.208 694.801 304.811 694.801 307.968V309.664C694.801 312.821 693.916 315.435 692.145 317.504C690.375 319.552 688.209 320.576 685.649 320.576C683.089 320.576 680.913 319.552 679.121 317.504C677.351 315.435 676.476 312.821 676.497 309.664ZM713.119 304.832C713.119 305.6 712.949 306.368 712.607 307.136C712.266 307.904 711.775 308.629 711.135 309.312C710.517 309.995 709.951 310.56 709.439 311.008C708.927 311.456 708.33 311.947 707.647 312.48L700.895 317.536H713.119V320H697.503V316.992L705.727 310.88C706.367 310.389 706.815 310.037 707.071 309.824C707.349 309.611 707.754 309.259 708.287 308.768C708.842 308.277 709.247 307.861 709.503 307.52C709.759 307.179 709.994 306.763 710.207 306.272C710.442 305.781 710.559 305.301 710.559 304.832C710.559 303.36 710.047 302.155 709.023 301.216C707.999 300.277 706.751 299.808 705.279 299.808C702.506 299.808 700.661 301.355 699.743 304.448L697.247 303.68C697.823 301.781 698.783 300.235 700.127 299.04C701.471 297.845 703.189 297.248 705.279 297.248C707.455 297.248 709.301 297.963 710.815 299.392C712.351 300.821 713.119 302.635 713.119 304.832ZM718.409 306.88C719.219 306.112 720.137 305.504 721.161 305.056C722.206 304.608 723.241 304.384 724.265 304.384C726.249 304.384 727.934 305.173 729.321 306.752C730.707 308.309 731.401 310.208 731.401 312.448C731.401 314.752 730.643 316.651 729.129 318.144C727.635 319.616 725.726 320.352 723.401 320.352C721.481 320.352 719.817 319.829 718.409 318.784C717.001 317.739 716.041 316.309 715.529 314.496L718.025 313.696C718.323 314.976 718.942 315.979 719.881 316.704C720.819 317.429 721.971 317.792 723.337 317.792C724.958 317.792 726.281 317.291 727.305 316.288C728.329 315.264 728.841 313.941 728.841 312.32C728.841 310.72 728.361 309.408 727.401 308.384C726.462 307.339 725.267 306.816 723.817 306.816C722.857 306.816 721.897 307.051 720.937 307.52C719.998 307.989 719.155 308.651 718.409 309.504L715.849 308.704V297.6H730.76V300.064H718.409V306.88Z" fill="#002853"/>
<rect x="17" y="346" width="716" height="1" fill="#002853"/>
<g filter="url(#filter0_d_4005_6873)">
<path d="M728.962 125.818C730.066 125.818 730.962 126.714 730.962 127.818C730.962 128.923 730.066 129.818 728.962 129.818H660.609C657.588 129.818 654.606 130.503 651.887 131.821L460.772 224.441C456.539 226.492 451.717 226.986 447.156 225.835L355.07 202.595C351.185 201.614 347.094 201.823 343.329 203.195L220.686 247.88C220.388 247.988 220.068 248.024 219.754 247.985L137.656 237.785C135.918 237.569 134.158 237.583 132.423 237.825L27.219 252.522C26.1251 252.675 25.1145 251.912 24.9619 250.818C24.8093 249.724 25.572 248.714 26.6657 248.561L134.745 233.463C134.918 233.438 135.095 233.437 135.269 233.459L214.984 243.362C218.128 243.752 221.32 243.391 224.296 242.306L348.315 197.121C348.692 196.984 349.101 196.963 349.49 197.062L446.72 221.6C451.282 222.752 456.103 222.258 460.337 220.206L650.968 127.821C653.687 126.503 656.669 125.818 659.691 125.818H728.962Z" fill="#86BCE8"/>
</g>
<path d="M730.962 1.9998C731.683 2.83586 731.591 4.09869 730.755 4.8203L644.864 78.9453C642.273 81.1813 639.151 82.715 635.798 83.3997L478.66 115.487C475.808 116.069 473.118 117.267 470.777 118.996L425.423 152.503C421.001 155.769 415.43 157.072 410.018 156.104L349.388 145.263C345.116 144.499 340.713 145.145 336.841 147.103L240.64 195.757C235.326 198.445 229.091 198.625 223.632 196.248L144.634 161.864C138.696 159.28 131.876 159.73 126.33 163.072L27.707 222.499C26.761 223.069 25.532 222.764 24.962 221.818C24.3919 220.872 24.6966 219.643 25.6427 219.073L126.034 158.581C131.58 155.239 138.401 154.789 144.338 157.373L223.503 191.83C228.962 194.206 235.197 194.026 240.511 191.339L336.229 142.93C340.101 140.972 344.504 140.326 348.775 141.09L409.028 151.863C414.439 152.831 420.01 151.528 424.431 148.262L472.313 112.891C472.547 112.718 472.816 112.599 473.101 112.54L633.975 79.6878C637.328 79.0031 640.449 77.4695 643.04 75.2336L728.142 1.79259C728.978 1.07113 730.24 1.1639 730.962 1.9998Z" fill="url(#paint0_linear_4005_6873)"/>
<path d="M727.814 1.41406C728.859 0.512303 730.438 0.628228 731.34 1.67285C732.242 2.71796 732.126 4.29718 731.081 5.19922L645.19 79.3242C642.535 81.616 639.335 83.1878 635.898 83.8896L478.76 115.977C475.98 116.544 473.357 117.712 471.074 119.398L425.72 152.905C421.188 156.253 415.477 157.588 409.931 156.597L349.3 145.755C345.135 145.01 340.841 145.641 337.066 147.55L240.865 196.203C235.419 198.958 229.028 199.143 223.432 196.707L144.434 162.322C138.645 159.803 131.995 160.242 126.588 163.5L27.9648 222.928C26.7824 223.64 25.2467 223.259 24.5342 222.076C23.8216 220.894 24.2022 219.357 25.3848 218.645L125.775 158.152C131.46 154.727 138.452 154.265 144.537 156.914L223.702 191.371C229.025 193.688 235.104 193.513 240.285 190.893L336.003 142.484C339.972 140.477 344.485 139.815 348.863 140.598L409.115 151.371C414.391 152.314 419.824 151.045 424.135 147.86L472.016 112.489C472.308 112.273 472.644 112.123 473 112.05H473.001L633.875 79.1982C637.144 78.5306 640.188 77.0354 642.714 74.8555L727.814 1.41406Z" stroke="#86BCE8" stroke-opacity="0.3"/>
<circle cx="21.5" cy="223.5" r="4.5" fill="#002853"/>
<circle cx="21.5" cy="251.5" r="4.5" fill="#86BCE8"/>
<defs>
<filter id="filter0_d_4005_6873" x="0.942383" y="105.818" width="754.02" height="174.723" filterUnits="userSpaceOnUse" color-interpolation-filters="sRGB">
<feFlood flood-opacity="0" result="BackgroundImageFix"/>
<feColorMatrix in="SourceAlpha" type="matrix" values="0 0 0 0 0 0 0 0 0 0 0 0 0 0 0 0 0 0 127 0" result="hardAlpha"/>
<feOffset dy="4"/>
<feGaussianBlur stdDeviation="12"/>
<feComposite in2="hardAlpha" operator="out"/>
<feColorMatrix type="matrix" values="0 0 0 0 0 0 0 0 0 0.156863 0 0 0 0 0.32549 0 0 0 0.15 0"/>
<feBlend mode="normal" in2="BackgroundImageFix" result="effect1_dropShadow_4005_6873"/>
<feBlend mode="normal" in="SourceGraphic" in2="effect1_dropShadow_4005_6873" result="shape"/>
</filter>
<linearGradient id="paint0_linear_4005_6873" x1="723.001" y1="1.37396e-05" x2="104.912" y2="178.133" gradientUnits="userSpaceOnUse">
<stop stop-color="#0367A1"/>
<stop offset="1" stop-color="#0E284B"/>
</linearGradient>
</defs>
</svg>
