<svg viewBox="0 0 387.195 345.903" xmlns="http://www.w3.org/2000/svg" xmlns:xlink="http://www.w3.org/1999/xlink" width="387.195312" height="345.903320" fill="none" customFrame="#000000">
	<defs>
		<clipPath id="clipPath_0">
			<rect width="386.000000" height="42.000000" x="0.378906" y="284.066406" fill="rgb(255,255,255)" />
		</clipPath>
	</defs>
	<g id="Group 177">
		<g id="Frame 219" customFrame="url(#clipPath_0)">
			<rect id="Frame 219" width="386.000000" height="42.000000" x="0.378906" y="284.066406" />
			<path id="2022" d="M11.0589 305.066C11.0589 305.546 10.9522 306.026 10.7389 306.506C10.5256 306.986 10.2189 307.44 9.81891 307.866C9.43224 308.293 9.07891 308.646 8.75891 308.926C8.43891 309.206 8.06557 309.513 7.63891 309.846L3.41891 313.006L11.0589 313.006L11.0589 314.546L1.29891 314.546L1.29891 312.666L6.43891 308.846C6.83891 308.54 7.11891 308.32 7.27891 308.186C7.45224 308.053 7.70557 307.833 8.03891 307.526C8.38557 307.22 8.63891 306.96 8.79891 306.746C8.95891 306.533 9.10557 306.273 9.23891 305.966C9.38557 305.66 9.45891 305.36 9.45891 305.066C9.45891 304.146 9.13891 303.393 8.49891 302.806C7.85891 302.22 7.07891 301.926 6.15891 301.926C4.42557 301.926 3.27224 302.893 2.69891 304.826L1.13891 304.346C1.49891 303.16 2.09891 302.193 2.93891 301.446C3.77891 300.7 4.85224 300.326 6.15891 300.326C7.51891 300.326 8.67224 300.773 9.61891 301.666C10.5789 302.56 11.0589 303.693 11.0589 305.066ZM14.1647 308.086C14.1647 309.606 14.5647 310.86 15.3647 311.846C16.1647 312.82 17.138 313.306 18.2847 313.306C19.4314 313.306 20.4047 312.82 21.2047 311.846C22.0047 310.86 22.4047 309.606 22.4047 308.086L22.4047 307.026C22.4047 305.506 22.0047 304.26 21.2047 303.286C20.4047 302.3 19.4314 301.806 18.2847 301.806C17.138 301.806 16.1647 302.3 15.3647 303.286C14.5647 304.26 14.1647 305.506 14.1647 307.026L14.1647 308.086ZM12.5647 308.086L12.5647 307.026C12.5647 305.053 13.118 303.426 14.2247 302.146C15.3314 300.853 16.6847 300.206 18.2847 300.206C19.8847 300.206 21.238 300.853 22.3447 302.146C23.4514 303.426 24.0047 305.053 24.0047 307.026L24.0047 308.086C24.0047 310.06 23.4514 311.693 22.3447 312.986C21.238 314.266 19.8847 314.906 18.2847 314.906C16.6847 314.906 15.3247 314.266 14.2047 312.986C13.098 311.693 12.5514 310.06 12.5647 308.086ZM35.4534 305.066C35.4534 305.546 35.3468 306.026 35.1334 306.506C34.9201 306.986 34.6134 307.44 34.2134 307.866C33.8268 308.293 33.4734 308.646 33.1534 308.926C32.8334 309.206 32.4601 309.513 32.0334 309.846L27.8134 313.006L35.4534 313.006L35.4534 314.546L25.6934 314.546L25.6934 312.666L30.8334 308.846C31.2334 308.54 31.5134 308.32 31.6734 308.186C31.8468 308.053 32.1001 307.833 32.4334 307.526C32.7801 307.22 33.0334 306.96 33.1934 306.746C33.3534 306.533 33.5001 306.273 33.6334 305.966C33.7801 305.66 33.8534 305.36 33.8534 305.066C33.8534 304.146 33.5334 303.393 32.8934 302.806C32.2534 302.22 31.4734 301.926 30.5534 301.926C28.8201 301.926 27.6668 302.893 27.0934 304.826L25.5334 304.346C25.8934 303.16 26.4934 302.193 27.3334 301.446C28.1734 300.7 29.2468 300.326 30.5534 300.326C31.9134 300.326 33.0668 300.773 34.0134 301.666C34.9734 302.56 35.4534 303.693 35.4534 305.066ZM46.8792 305.066C46.8792 305.546 46.7726 306.026 46.5592 306.506C46.3459 306.986 46.0392 307.44 45.6392 307.866C45.2526 308.293 44.8992 308.646 44.5792 308.926C44.2592 309.206 43.8859 309.513 43.4592 309.846L39.2392 313.006L46.8792 313.006L46.8792 314.546L37.1192 314.546L37.1192 312.666L42.2592 308.846C42.6592 308.54 42.9392 308.32 43.0992 308.186C43.2726 308.053 43.5259 307.833 43.8592 307.526C44.2059 307.22 44.4592 306.96 44.6192 306.746C44.7792 306.533 44.9259 306.273 45.0592 305.966C45.2059 305.66 45.2792 305.36 45.2792 305.066C45.2792 304.146 44.9592 303.393 44.3192 302.806C43.6792 302.22 42.8992 301.926 41.9792 301.926C40.2459 301.926 39.0926 302.893 38.5192 304.826L36.9592 304.346C37.3192 303.16 37.9192 302.193 38.7592 301.446C39.5992 300.7 40.6726 300.326 41.9792 300.326C43.3392 300.326 44.4926 300.773 45.4392 301.666C46.3992 302.56 46.8792 303.693 46.8792 305.066Z" fill="rgb(0,40,83)" fill-rule="nonzero" />
			<path id="2023" d="M123.725 305.066C123.725 305.546 123.618 306.026 123.405 306.506C123.192 306.986 122.885 307.44 122.485 307.866C122.098 308.293 121.745 308.646 121.425 308.926C121.105 309.206 120.732 309.513 120.305 309.846L116.085 313.006L123.725 313.006L123.725 314.546L113.965 314.546L113.965 312.666L119.105 308.846C119.505 308.54 119.785 308.32 119.945 308.186C120.118 308.053 120.372 307.833 120.705 307.526C121.052 307.22 121.305 306.96 121.465 306.746C121.625 306.533 121.772 306.273 121.905 305.966C122.052 305.66 122.125 305.36 122.125 305.066C122.125 304.146 121.805 303.393 121.165 302.806C120.525 302.22 119.745 301.926 118.825 301.926C117.092 301.926 115.938 302.893 115.365 304.826L113.805 304.346C114.165 303.16 114.765 302.193 115.605 301.446C116.445 300.7 117.518 300.326 118.825 300.326C120.185 300.326 121.338 300.773 122.285 301.666C123.245 302.56 123.725 303.693 123.725 305.066ZM126.831 308.086C126.831 309.606 127.231 310.86 128.031 311.846C128.831 312.82 129.804 313.306 130.951 313.306C132.097 313.306 133.071 312.82 133.871 311.846C134.671 310.86 135.071 309.606 135.071 308.086L135.071 307.026C135.071 305.506 134.671 304.26 133.871 303.286C133.071 302.3 132.097 301.806 130.951 301.806C129.804 301.806 128.831 302.3 128.031 303.286C127.231 304.26 126.831 305.506 126.831 307.026L126.831 308.086ZM125.231 308.086L125.231 307.026C125.231 305.053 125.784 303.426 126.891 302.146C127.997 300.853 129.351 300.206 130.951 300.206C132.551 300.206 133.904 300.853 135.011 302.146C136.117 303.426 136.671 305.053 136.671 307.026L136.671 308.086C136.671 310.06 136.117 311.693 135.011 312.986C133.904 314.266 132.551 314.906 130.951 314.906C129.351 314.906 127.991 314.266 126.871 312.986C125.764 311.693 125.217 310.06 125.231 308.086ZM148.119 305.066C148.119 305.546 148.013 306.026 147.799 306.506C147.586 306.986 147.279 307.44 146.879 307.866C146.493 308.293 146.139 308.646 145.819 308.926C145.499 309.206 145.126 309.513 144.699 309.846L140.479 313.006L148.119 313.006L148.119 314.546L138.359 314.546L138.359 312.666L143.499 308.846C143.899 308.54 144.179 308.32 144.339 308.186C144.513 308.053 144.766 307.833 145.099 307.526C145.446 307.22 145.699 306.96 145.859 306.746C146.019 306.533 146.166 306.273 146.299 305.966C146.446 305.66 146.519 305.36 146.519 305.066C146.519 304.146 146.199 303.393 145.559 302.806C144.919 302.22 144.139 301.926 143.219 301.926C141.486 301.926 140.333 302.893 139.759 304.826L138.199 304.346C138.559 303.16 139.159 302.193 139.999 301.446C140.839 300.7 141.913 300.326 143.219 300.326C144.579 300.326 145.733 300.773 146.679 301.666C147.639 302.56 148.119 303.693 148.119 305.066ZM155.585 305.986C156.785 306.16 157.745 306.64 158.465 307.426C159.185 308.2 159.545 309.186 159.545 310.386C159.545 311.666 159.079 312.72 158.145 313.546C157.212 314.36 156.012 314.766 154.545 314.766C153.332 314.766 152.285 314.426 151.405 313.746C150.525 313.066 149.932 312.173 149.625 311.066L151.125 310.546C151.312 311.373 151.705 312.02 152.305 312.486C152.919 312.94 153.672 313.166 154.565 313.166C155.552 313.166 156.359 312.913 156.985 312.406C157.625 311.886 157.945 311.226 157.945 310.426C157.945 309.413 157.592 308.62 156.885 308.046C156.192 307.46 155.212 307.166 153.945 307.166L153.445 306.026L157.745 302.086L149.785 302.086L149.785 300.546L159.545 300.546L159.545 302.426L155.585 305.986Z" fill="rgb(0,40,83)" fill-rule="nonzero" />
			<path id="2024" d="M236.393 305.066C236.393 305.546 236.286 306.026 236.073 306.506C235.86 306.986 235.553 307.44 235.153 307.866C234.766 308.293 234.413 308.646 234.093 308.926C233.773 309.206 233.4 309.513 232.973 309.846L228.753 313.006L236.393 313.006L236.393 314.546L226.633 314.546L226.633 312.666L231.773 308.846C232.173 308.54 232.453 308.32 232.613 308.186C232.786 308.053 233.04 307.833 233.373 307.526C233.72 307.22 233.973 306.96 234.133 306.746C234.293 306.533 234.44 306.273 234.573 305.966C234.72 305.66 234.793 305.36 234.793 305.066C234.793 304.146 234.473 303.393 233.833 302.806C233.193 302.22 232.413 301.926 231.493 301.926C229.76 301.926 228.606 302.893 228.033 304.826L226.473 304.346C226.833 303.16 227.433 302.193 228.273 301.446C229.113 300.7 230.186 300.326 231.493 300.326C232.853 300.326 234.006 300.773 234.953 301.666C235.913 302.56 236.393 303.693 236.393 305.066ZM239.499 308.086C239.499 309.606 239.899 310.86 240.699 311.846C241.499 312.82 242.472 313.306 243.619 313.306C244.765 313.306 245.739 312.82 246.539 311.846C247.339 310.86 247.739 309.606 247.739 308.086L247.739 307.026C247.739 305.506 247.339 304.26 246.539 303.286C245.739 302.3 244.765 301.806 243.619 301.806C242.472 301.806 241.499 302.3 240.699 303.286C239.899 304.26 239.499 305.506 239.499 307.026L239.499 308.086ZM237.899 308.086L237.899 307.026C237.899 305.053 238.452 303.426 239.559 302.146C240.665 300.853 242.019 300.206 243.619 300.206C245.219 300.206 246.572 300.853 247.679 302.146C248.785 303.426 249.339 305.053 249.339 307.026L249.339 308.086C249.339 310.06 248.785 311.693 247.679 312.986C246.572 314.266 245.219 314.906 243.619 314.906C242.019 314.906 240.659 314.266 239.539 312.986C238.432 311.693 237.885 310.06 237.899 308.086ZM260.787 305.066C260.787 305.546 260.681 306.026 260.467 306.506C260.254 306.986 259.947 307.44 259.547 307.866C259.161 308.293 258.807 308.646 258.487 308.926C258.167 309.206 257.794 309.513 257.367 309.846L253.147 313.006L260.787 313.006L260.787 314.546L251.027 314.546L251.027 312.666L256.167 308.846C256.567 308.54 256.847 308.32 257.007 308.186C257.181 308.053 257.434 307.833 257.767 307.526C258.114 307.22 258.367 306.96 258.527 306.746C258.687 306.533 258.834 306.273 258.967 305.966C259.114 305.66 259.187 305.36 259.187 305.066C259.187 304.146 258.867 303.393 258.227 302.806C257.587 302.22 256.807 301.926 255.887 301.926C254.154 301.926 253.001 302.893 252.427 304.826L250.867 304.346C251.227 303.16 251.827 302.193 252.667 301.446C253.507 300.7 254.581 300.326 255.887 300.326C257.247 300.326 258.401 300.773 259.347 301.666C260.307 302.56 260.787 303.693 260.787 305.066ZM263.753 308.846L269.013 308.846L269.013 302.606L263.753 308.846ZM270.613 300.546L270.613 308.846L272.853 308.846L272.853 310.386L270.613 310.386L270.613 314.546L269.013 314.546L269.013 310.386L262.113 310.386L262.113 308.586L268.753 300.546L270.613 300.546Z" fill="rgb(0,40,83)" fill-rule="nonzero" />
			<path id="2025" d="M349.059 305.066C349.059 305.546 348.952 306.026 348.739 306.506C348.526 306.986 348.219 307.44 347.819 307.866C347.432 308.293 347.079 308.646 346.759 308.926C346.439 309.206 346.066 309.513 345.639 309.846L341.419 313.006L349.059 313.006L349.059 314.546L339.299 314.546L339.299 312.666L344.439 308.846C344.839 308.54 345.119 308.32 345.279 308.186C345.452 308.053 345.706 307.833 346.039 307.526C346.386 307.22 346.639 306.96 346.799 306.746C346.959 306.533 347.106 306.273 347.239 305.966C347.386 305.66 347.459 305.36 347.459 305.066C347.459 304.146 347.139 303.393 346.499 302.806C345.859 302.22 345.079 301.926 344.159 301.926C342.426 301.926 341.272 302.893 340.699 304.826L339.139 304.346C339.499 303.16 340.099 302.193 340.939 301.446C341.779 300.7 342.852 300.326 344.159 300.326C345.519 300.326 346.672 300.773 347.619 301.666C348.579 302.56 349.059 303.693 349.059 305.066ZM352.165 308.086C352.165 309.606 352.565 310.86 353.365 311.846C354.165 312.82 355.138 313.306 356.285 313.306C357.431 313.306 358.405 312.82 359.205 311.846C360.005 310.86 360.405 309.606 360.405 308.086L360.405 307.026C360.405 305.506 360.005 304.26 359.205 303.286C358.405 302.3 357.431 301.806 356.285 301.806C355.138 301.806 354.165 302.3 353.365 303.286C352.565 304.26 352.165 305.506 352.165 307.026L352.165 308.086ZM350.565 308.086L350.565 307.026C350.565 305.053 351.118 303.426 352.225 302.146C353.331 300.853 354.685 300.206 356.285 300.206C357.885 300.206 359.238 300.853 360.345 302.146C361.451 303.426 362.005 305.053 362.005 307.026L362.005 308.086C362.005 310.06 361.451 311.693 360.345 312.986C359.238 314.266 357.885 314.906 356.285 314.906C354.685 314.906 353.325 314.266 352.205 312.986C351.098 311.693 350.551 310.06 350.565 308.086ZM373.453 305.066C373.453 305.546 373.347 306.026 373.133 306.506C372.92 306.986 372.613 307.44 372.213 307.866C371.827 308.293 371.473 308.646 371.153 308.926C370.833 309.206 370.46 309.513 370.033 309.846L365.813 313.006L373.453 313.006L373.453 314.546L363.693 314.546L363.693 312.666L368.833 308.846C369.233 308.54 369.513 308.32 369.673 308.186C369.847 308.053 370.1 307.833 370.433 307.526C370.78 307.22 371.033 306.96 371.193 306.746C371.353 306.533 371.5 306.273 371.633 305.966C371.78 305.66 371.853 305.36 371.853 305.066C371.853 304.146 371.533 303.393 370.893 302.806C370.253 302.22 369.473 301.926 368.553 301.926C366.82 301.926 365.667 302.893 365.093 304.826L363.533 304.346C363.893 303.16 364.493 302.193 365.333 301.446C366.173 300.7 367.247 300.326 368.553 300.326C369.913 300.326 371.067 300.773 372.013 301.666C372.973 302.56 373.453 303.693 373.453 305.066ZM376.759 306.346C377.266 305.866 377.839 305.486 378.479 305.206C379.133 304.926 379.779 304.786 380.419 304.786C381.659 304.786 382.713 305.28 383.579 306.266C384.446 307.24 384.879 308.426 384.879 309.826C384.879 311.266 384.406 312.453 383.459 313.386C382.526 314.306 381.333 314.766 379.879 314.766C378.679 314.766 377.639 314.44 376.759 313.786C375.879 313.133 375.279 312.24 374.959 311.106L376.519 310.606C376.706 311.406 377.093 312.033 377.679 312.486C378.266 312.94 378.986 313.166 379.839 313.166C380.853 313.166 381.679 312.853 382.319 312.226C382.959 311.586 383.279 310.76 383.279 309.746C383.279 308.746 382.979 307.926 382.379 307.286C381.793 306.633 381.046 306.306 380.139 306.306C379.539 306.306 378.939 306.453 378.339 306.746C377.753 307.04 377.226 307.453 376.759 307.986L375.159 307.486L375.159 300.546L384.479 300.546L384.479 302.086L376.759 302.086L376.759 306.346Z" fill="rgb(0,40,83)" fill-rule="nonzero" />
		</g>
		<rect id="Rectangle 75" width="385.625977" height="2.000000" x="0.000000" y="343.902832" fill="rgb(0,40,83)" />
		<path id="Vector 1 (Stroke)" d="M386.491 125.332L386.491 129.332L346.259 129.332L237.924 227.13L181.497 200.603L112.555 247.393L112.311 247.557L112.054 247.499L66.5751 236.973L7.63071 252.312L7.33398 248.351L66.4184 232.976L66.5589 232.939L66.6994 232.972L112.062 243.469L181.382 196.423L181.702 196.575L237.69 222.896L345.765 125.332L386.491 125.332Z" fill="rgb(134,188,232)" fill-rule="nonzero" />
		<path id="Vector 2 (Stroke)" d="M387.192 3.02734L338.149 81.8691L248.721 115.885L218.747 157.134L178.114 143.6L118.763 199.514L66.6459 157.259L8.03602 223.045L6.92773 219.619L66.4871 152.768L118.694 195.095L177.785 139.427L218.215 152.893L247.828 112.143L248.061 112.054L337.17 78.1572L385.789 0L387.192 3.02734Z" fill="rgb(0,40,83)" fill-rule="nonzero" />
		<circle id="Ellipse 5" cx="4.5" cy="223.013672" r="4.5" fill="rgb(0,40,83)" />
		<circle id="Ellipse 6" cx="4.5" cy="251.013672" r="4.5" fill="rgb(134,188,232)" />
	</g>
</svg>
