<svg width="224" height="71" viewBox="0 0 224 71" fill="none" xmlns="http://www.w3.org/2000/svg">
<path d="M79.0959 49.1277C78.3365 48.421 77.958 47.5227 77.958 46.4327C77.958 45.3428 78.3365 44.4468 79.0959 43.7402C79.8553 43.0335 80.7823 42.6789 81.8795 42.6789C82.9767 42.6789 83.9061 43.0335 84.6631 43.7402C85.4225 44.4468 85.801 45.3452 85.801 46.4327C85.801 47.5203 85.4225 48.4186 84.6631 49.1277C83.9037 49.8344 82.9767 50.1889 81.8795 50.1889C80.7823 50.1889 79.8529 49.8344 79.0959 49.1277ZM79.884 44.5163C79.345 45.0146 79.0743 45.6542 79.0743 46.4351C79.0743 47.2161 79.345 47.8557 79.884 48.354C80.423 48.8522 81.089 49.1014 81.8795 49.1014C82.67 49.1014 83.336 48.8522 83.875 48.354C84.414 47.8557 84.6847 47.2161 84.6847 46.4351C84.6847 45.6542 84.414 45.0146 83.875 44.5163C83.336 44.018 82.67 43.7689 81.8795 43.7689C81.089 43.7689 80.423 44.018 79.884 44.5163ZM81.307 52.5893V40.4463H82.3945V52.5893H81.307Z" fill="white"/>
<path d="M88.0916 46.9355C88.1755 47.5967 88.4533 48.1261 88.9301 48.5261C89.4044 48.9262 89.9673 49.1274 90.6189 49.1274C91.122 49.1274 91.5771 49.0076 91.9868 48.7705C92.3964 48.5333 92.703 48.2051 92.909 47.7859L93.9415 48.1908C93.6349 48.804 93.1845 49.2903 92.5952 49.6496C92.0035 50.009 91.3495 50.1862 90.6333 50.1862C89.5912 50.1862 88.7145 49.8293 88.003 49.1178C87.2915 48.4064 86.9346 47.5104 86.9346 46.43C86.9346 45.3496 87.2843 44.4561 87.9814 43.7422C88.6785 43.0308 89.5361 42.6738 90.5494 42.6738C91.5628 42.6738 92.4371 43.0212 93.1462 43.7135C93.8529 44.4058 94.2074 45.2802 94.2074 46.3294C94.2074 46.4971 94.1835 46.6959 94.138 46.9283H88.094L88.0916 46.9355ZM93.0743 45.9174C93.0192 45.2658 92.7533 44.7412 92.279 44.3411C91.8047 43.9411 91.2322 43.7422 90.5614 43.7422C89.8907 43.7422 89.3684 43.9411 88.9085 44.3363C88.4485 44.7316 88.1755 45.261 88.0916 45.9198H93.0743V45.9174Z" fill="white"/>
<path d="M102.829 48.8754V51.556H101.713V49.9367H96.3107V51.556H95.1943V48.8754H102.829ZM96.543 48.4634C96.7802 48.1807 96.9 47.8238 96.9 47.395V42.9561H101.854V49.9343H100.738V44.0436H98.0163V47.589C98.0163 48.1664 97.7983 48.667 97.3599 49.0886C96.9215 49.5127 96.3586 49.7234 95.6711 49.7234H95.2662V48.873H95.5321C95.9705 48.8826 96.3059 48.7461 96.543 48.461V48.4634Z" fill="white"/>
<path d="M104.98 46.9355C105.064 47.5967 105.342 48.1261 105.819 48.5261C106.293 48.9262 106.856 49.1274 107.508 49.1274C108.011 49.1274 108.466 49.0076 108.875 48.7705C109.285 48.5333 109.592 48.2051 109.798 47.7859L110.83 48.1908C110.524 48.804 110.073 49.2903 109.484 49.6496C108.892 50.009 108.238 50.1862 107.522 50.1862C106.48 50.1862 105.603 49.8293 104.892 49.1178C104.18 48.4064 103.823 47.5104 103.823 46.43C103.823 45.3496 104.173 44.4561 104.87 43.7422C105.567 43.0308 106.425 42.6738 107.438 42.6738C108.451 42.6738 109.326 43.0212 110.035 43.7135C110.742 44.4058 111.096 45.2802 111.096 46.3294C111.096 46.4971 111.072 46.6959 111.027 46.9283H104.983L104.98 46.9355ZM109.963 45.9174C109.908 45.2658 109.642 44.7412 109.168 44.3411C108.693 43.9411 108.121 43.7422 107.45 43.7422C106.779 43.7422 106.257 43.9411 105.797 44.3363C105.337 44.7316 105.064 45.261 104.98 45.9198H109.963V45.9174Z" fill="white"/>
<path d="M112.488 42.9586H113.605V52.7276H112.488V42.9586ZM114.065 49.1486C113.403 48.4372 113.073 47.5388 113.073 46.456C113.073 45.3733 113.403 44.4773 114.065 43.7683C114.726 43.0616 115.54 42.707 116.508 42.707C117.476 42.707 118.343 43.0616 119.028 43.7683C119.713 44.4749 120.053 45.3709 120.053 46.456C120.053 47.5412 119.711 48.4372 119.028 49.1486C118.345 49.8601 117.505 50.217 116.508 50.217C115.511 50.217 114.726 49.8601 114.065 49.1486ZM114.378 44.5348C113.861 45.0379 113.605 45.6775 113.605 46.4537C113.605 47.2298 113.863 47.8694 114.378 48.3725C114.896 48.8755 115.526 49.1271 116.268 49.1271C117.011 49.1271 117.643 48.8755 118.159 48.3725C118.676 47.8694 118.932 47.2298 118.932 46.4537C118.932 45.6775 118.674 45.0379 118.159 44.5348C117.641 44.0318 117.011 43.7802 116.268 43.7802C115.526 43.7802 114.893 44.0318 114.378 44.5348Z" fill="white"/>
<path d="M125.704 46.7123L123.709 46.9495C122.77 47.0693 122.3 47.4286 122.3 48.0251C122.3 48.3413 122.429 48.5952 122.691 48.7869C122.952 48.9785 123.299 49.072 123.737 49.072C124.334 49.072 124.811 48.8947 125.168 48.5425C125.527 48.188 125.704 47.7233 125.704 47.1459H126.193C126.193 47.994 125.932 48.6959 125.412 49.254C124.89 49.8122 124.24 50.0925 123.457 50.0925C122.796 50.0925 122.25 49.9032 121.816 49.5271C121.383 49.151 121.167 48.6647 121.167 48.0682C121.177 47.5005 121.383 47.031 121.787 46.6596C122.192 46.2883 122.753 46.0584 123.469 45.9745L125.702 45.723V45.4427C125.702 45.0139 125.536 44.6426 125.206 44.3264C124.875 44.0102 124.473 43.8521 123.999 43.8521C123.57 43.8521 123.191 43.9695 122.861 44.2018C122.53 44.4342 122.324 44.736 122.24 45.1097L121.179 44.7744C121.366 44.1875 121.711 43.7131 122.219 43.3514C122.726 42.9897 123.301 42.8076 123.943 42.8076C124.724 42.8076 125.4 43.0568 125.968 43.555C126.535 44.0533 126.818 44.645 126.818 45.3349V49.9415H125.702V46.7171L125.704 46.7123Z" fill="white"/>
<path d="M129.362 48.4783C129.575 48.2316 129.683 47.9177 129.683 47.5369V42.959H134.637V49.9372H133.521V44.0466H130.8V47.7165C130.8 48.3226 130.596 48.8424 130.186 49.2808C129.777 49.7192 129.247 49.9372 128.596 49.9372H128.162V48.8496H128.454C128.845 48.8496 129.147 48.7274 129.362 48.4807V48.4783Z" fill="white"/>
<path d="M140.556 45.7498C141.179 45.7498 141.703 45.9534 142.125 46.363C142.549 46.7727 142.76 47.2757 142.76 47.8698C142.76 48.4639 142.549 48.9478 142.125 49.3431C141.701 49.7384 141.179 49.9372 140.556 49.9372H136.313V42.959H137.43V45.7498H140.556ZM140.415 46.811H137.427V48.8496H140.415C140.769 48.8496 141.061 48.7538 141.294 48.5645C141.526 48.3753 141.644 48.1381 141.644 47.8603C141.644 47.5632 141.526 47.3141 141.294 47.1129C141.061 46.9116 140.769 46.8134 140.415 46.8134V46.811Z" fill="white"/>
<path d="M144.169 49.9372V42.959H145.285V45.9031H149.64V42.959H150.757V49.9372H149.64V46.9643H145.285V49.9372H144.169Z" fill="white"/>
<path d="M156.537 45.7498C157.16 45.7498 157.684 45.9534 158.106 46.363C158.528 46.7727 158.741 47.2757 158.741 47.8698C158.741 48.4639 158.53 48.9478 158.106 49.3431C157.682 49.7384 157.16 49.9372 156.537 49.9372H152.393V42.959H153.509V45.7498H156.537ZM156.396 46.811H153.506V48.8496H156.396C156.75 48.8496 157.042 48.7538 157.275 48.5645C157.507 48.3753 157.624 48.1381 157.624 47.8603C157.624 47.5632 157.507 47.3141 157.275 47.1129C157.042 46.914 156.748 46.8134 156.396 46.8134V46.811ZM159.9 49.9372V42.959H161.017V49.9372H159.9Z" fill="white"/>
<path d="M168.972 49.937H167.856V44.3554L164.019 49.937H162.691V42.9588H163.808V48.4014L167.631 42.9588H168.97V49.937H168.972ZM165.858 41.8975C165.216 41.8975 164.672 41.6867 164.225 41.2627C163.777 40.8387 163.554 40.3309 163.554 39.7344H164.488C164.488 40.1057 164.617 40.4147 164.879 40.6567C165.14 40.8986 165.47 41.0184 165.87 41.0184C166.27 41.0184 166.627 40.8938 166.91 40.6423C167.193 40.3908 167.336 40.0889 167.336 39.7344H168.271C168.271 40.3117 168.031 40.8172 167.552 41.2483C167.073 41.6819 166.507 41.8975 165.856 41.8975H165.858Z" fill="white"/>
<path d="M176.074 44.5161C175.571 45.0144 175.32 45.654 175.32 46.4349C175.32 47.2159 175.571 47.8555 176.074 48.3537C176.578 48.852 177.191 49.1011 177.917 49.1011C178.436 49.1011 178.908 48.9766 179.325 48.725C179.744 48.4735 180.065 48.1214 180.288 47.6638L181.306 48.1238C181 48.7562 180.545 49.2592 179.939 49.6306C179.332 50.0019 178.659 50.1887 177.914 50.1887C176.872 50.1887 175.993 49.8342 175.277 49.1275C174.561 48.4208 174.201 47.5225 174.201 46.4325C174.201 45.3425 174.561 44.4466 175.277 43.7399C175.993 43.0332 176.872 42.6787 177.914 42.6787C178.669 42.6787 179.352 42.8703 179.965 43.2512C180.578 43.6321 181.036 44.1544 181.333 44.8155L180.315 45.2755C180.101 44.8011 179.78 44.4322 179.352 44.1663C178.923 43.9004 178.444 43.7687 177.914 43.7687C177.188 43.7687 176.575 44.0178 176.072 44.5161H176.074Z" fill="white"/>
<path d="M183.611 46.9355C183.695 47.5967 183.973 48.1261 184.45 48.5261C184.924 48.9262 185.487 49.1274 186.138 49.1274C186.642 49.1274 187.097 49.0076 187.506 48.7705C187.916 48.5333 188.223 48.2051 188.429 47.7859L189.461 48.1908C189.154 48.804 188.704 49.2903 188.115 49.6496C187.523 50.009 186.869 50.1862 186.153 50.1862C185.111 50.1862 184.234 49.8293 183.523 49.1178C182.811 48.4064 182.454 47.5104 182.454 46.43C182.454 45.3496 182.804 44.4561 183.501 43.7422C184.198 43.0308 185.056 42.6738 186.069 42.6738C187.082 42.6738 187.957 43.0212 188.666 43.7135C189.372 44.4058 189.727 45.2802 189.727 46.3294C189.727 46.4971 189.703 46.6959 189.657 46.9283H183.614L183.611 46.9355ZM188.594 45.9174C188.539 45.2658 188.273 44.7412 187.799 44.3411C187.324 43.9411 186.752 43.7422 186.081 43.7422C185.41 43.7422 184.888 43.9411 184.428 44.3363C183.968 44.7316 183.695 45.261 183.611 45.9198H188.594V45.9174Z" fill="white"/>
<path d="M191.121 42.9586H192.237V52.7276H191.121V42.9586ZM192.697 49.1486C192.036 48.4372 191.706 47.5388 191.706 46.456C191.706 45.3733 192.036 44.4773 192.697 43.7683C193.359 43.0616 194.173 42.707 195.141 42.707C196.109 42.707 196.976 43.0616 197.661 43.7683C198.346 44.4749 198.686 45.3709 198.686 46.456C198.686 47.5412 198.344 48.4372 197.661 49.1486C196.978 49.8601 196.137 50.217 195.141 50.217C194.144 50.217 193.359 49.8601 192.697 49.1486ZM193.011 44.5348C192.494 45.0379 192.237 45.6775 192.237 46.4537C192.237 47.2298 192.496 47.8694 193.011 48.3725C193.529 48.8755 194.159 49.1271 194.901 49.1271C195.644 49.1271 196.276 48.8755 196.791 48.3725C197.309 47.8694 197.565 47.2298 197.565 46.4537C197.565 45.6775 197.306 45.0379 196.791 44.5348C196.274 44.0318 195.644 43.7802 194.901 43.7802C194.159 43.7802 193.526 44.0318 193.011 44.5348Z" fill="white"/>
<path d="M204.296 49.9372H200.095V42.959H204.158C204.79 42.959 205.317 43.1434 205.741 43.51C206.165 43.8789 206.376 44.3412 206.376 44.8994C206.376 45.206 206.294 45.4887 206.131 45.745C205.969 46.0013 205.743 46.1977 205.454 46.3391C205.779 46.4972 206.038 46.7248 206.227 47.0218C206.417 47.3189 206.512 47.6542 206.512 48.0256C206.512 48.5645 206.302 49.0197 205.878 49.3862C205.454 49.7551 204.927 49.9372 204.294 49.9372H204.296ZM204.016 43.9771H201.211V45.9438H204.143C204.459 45.9438 204.725 45.8576 204.938 45.6851C205.152 45.5126 205.259 45.297 205.259 45.0359C205.259 44.7293 205.14 44.4754 204.903 44.2765C204.665 44.0777 204.371 43.9771 204.016 43.9771ZM204.155 46.8805H201.211V48.9191H204.155C204.51 48.9191 204.804 48.8233 205.041 48.634C205.279 48.4448 205.398 48.2076 205.398 47.9297C205.398 47.6231 205.279 47.3716 205.041 47.1751C204.804 46.9787 204.51 46.8829 204.155 46.8829V46.8805Z" fill="white"/>
<path d="M214.19 49.9372H213.074V44.3556L209.236 49.9372H207.909V42.959H209.025V48.4016L212.849 42.959H214.188V49.9372H214.19Z" fill="white"/>
<path d="M217.457 44.5161C216.954 45.0144 216.703 45.654 216.703 46.4349C216.703 47.2159 216.954 47.8555 217.457 48.3537C217.96 48.852 218.574 49.1011 219.299 49.1011C219.819 49.1011 220.291 48.9766 220.708 48.725C221.127 48.4735 221.448 48.1214 221.671 47.6638L222.689 48.1238C222.383 48.7562 221.927 49.2592 221.321 49.6306C220.715 50.0019 220.042 50.1887 219.297 50.1887C218.255 50.1887 217.376 49.8342 216.66 49.1275C215.943 48.4208 215.584 47.5225 215.584 46.4325C215.584 45.3425 215.943 44.4466 216.66 43.7399C217.376 43.0332 218.255 42.6787 219.297 42.6787C220.052 42.6787 220.734 42.8703 221.348 43.2512C221.961 43.6321 222.418 44.1544 222.716 44.8155L221.697 45.2755C221.484 44.8011 221.163 44.4322 220.734 44.1663C220.306 43.9004 219.826 43.7687 219.297 43.7687C218.571 43.7687 217.958 44.0178 217.455 44.5161H217.457Z" fill="white"/>
<path d="M79.8294 57.9067C79.3263 58.405 79.0748 59.0446 79.0748 59.8255C79.0748 60.6065 79.3263 61.2461 79.8294 61.7444C80.3324 62.2426 80.9457 62.4918 81.6715 62.4918C82.1914 62.4918 82.6633 62.3672 83.0801 62.1157C83.4993 61.8641 83.8203 61.512 84.0431 61.0544L85.0612 61.5144C84.7546 62.1468 84.2994 62.6499 83.6934 63.0212C83.0873 63.3925 82.4142 63.5794 81.6691 63.5794C80.6271 63.5794 79.7479 63.2248 79.0316 62.5181C78.3154 61.8115 77.9561 60.9131 77.9561 59.8232C77.9561 58.7332 78.3154 57.8372 79.0316 57.1306C79.7479 56.4239 80.6271 56.0693 81.6691 56.0693C82.4237 56.0693 83.1065 56.261 83.7197 56.6419C84.333 57.0228 84.7905 57.545 85.0876 58.2062L84.0695 58.6661C83.8563 58.1918 83.5353 57.8229 83.1065 57.557C82.6777 57.2911 82.1986 57.1593 81.6691 57.1593C80.9433 57.1593 80.33 57.4085 79.827 57.9067H79.8294Z" fill="white"/>
<path d="M92.4871 56.3525V63.3307H91.3708V57.4138H87.6026V63.3307H86.4863V56.3525H92.4871Z" fill="white"/>
<path d="M100.443 63.3307H99.3269V57.7491L95.4892 63.3307H94.1621V56.3525H95.2784V61.7952L99.1017 56.3525H100.441V63.3307H100.443Z" fill="white"/>
<path d="M103.71 57.9067C103.207 58.405 102.956 59.0446 102.956 59.8255C102.956 60.6065 103.207 61.2461 103.71 61.7444C104.213 62.2426 104.827 62.4918 105.552 62.4918C106.072 62.4918 106.544 62.3672 106.961 62.1157C107.38 61.8641 107.701 61.512 107.924 61.0544L108.942 61.5144C108.635 62.1468 108.18 62.6499 107.574 63.0212C106.968 63.3925 106.295 63.5794 105.55 63.5794C104.508 63.5794 103.629 63.2248 102.913 62.5181C102.196 61.8115 101.837 60.9131 101.837 59.8232C101.837 58.7332 102.196 57.8372 102.913 57.1306C103.629 56.4239 104.508 56.0693 105.55 56.0693C106.305 56.0693 106.987 56.261 107.601 56.6419C108.214 57.0228 108.671 57.545 108.968 58.2062L107.95 58.6661C107.737 58.1918 107.416 57.8229 106.987 57.557C106.559 57.2911 106.079 57.1593 105.55 57.1593C104.824 57.1593 104.211 57.4085 103.708 57.9067H103.71Z" fill="white"/>
<path d="M114.61 60.1059L112.615 60.3431C111.676 60.4628 111.206 60.8222 111.206 61.4186C111.206 61.7349 111.336 61.9888 111.597 62.1804C111.858 62.3721 112.205 62.4655 112.644 62.4655C113.24 62.4655 113.717 62.2882 114.074 61.9361C114.433 61.5815 114.61 61.1168 114.61 60.5395H115.099C115.099 61.3875 114.838 62.0894 114.318 62.6476C113.796 63.2057 113.147 63.486 112.363 63.486C111.702 63.486 111.156 63.2968 110.722 62.9207C110.289 62.5446 110.073 62.0583 110.073 61.4618C110.083 60.894 110.289 60.4245 110.694 60.0532C111.099 59.6819 111.659 59.4519 112.375 59.3681L114.608 59.1165V58.8363C114.608 58.4075 114.443 58.0361 114.112 57.7199C113.782 57.4037 113.379 57.2456 112.905 57.2456C112.476 57.2456 112.097 57.363 111.767 57.5954C111.436 57.8277 111.23 58.1296 111.146 58.5033L110.085 58.1679C110.272 57.581 110.617 57.1067 111.125 56.7449C111.633 56.3832 112.208 56.2012 112.85 56.2012C113.631 56.2012 114.306 56.4503 114.874 56.9486C115.442 57.4469 115.724 58.0385 115.724 58.7285V63.3351H114.608V60.1107L114.61 60.1059Z" fill="white"/>
<path d="M117.401 63.3307V56.3525H118.518V59.2967H122.873V56.3525H123.989V63.3307H122.873V60.3579H118.518V63.3307H117.401Z" fill="white"/>
<path d="M131.944 63.3307H130.828V57.7491L126.99 63.3307H125.663V56.3525H126.779V61.7952L130.603 56.3525H131.942V63.3307H131.944Z" fill="white"/>
<path d="M136.69 60.7771L134.709 63.3307H133.341L135.406 60.7076C134.81 60.6693 134.319 60.4465 133.926 60.0369C133.535 59.6272 133.339 59.1338 133.339 58.5564C133.339 57.9336 133.566 57.409 134.022 56.9874C134.477 56.5634 135.044 56.3525 135.725 56.3525H139.591V63.3307H138.475V60.7771H136.688H136.69ZM135.881 59.7566H138.477V57.4401H135.881C135.49 57.4401 135.162 57.5503 134.896 57.7683C134.63 57.9863 134.498 58.2546 134.498 58.5708C134.498 58.9158 134.63 59.1984 134.896 59.4212C135.162 59.644 135.49 59.7566 135.881 59.7566Z" fill="white"/>
<path d="M152.335 62.269V64.9496H151.218V63.3302H145.817V64.9496H144.7V62.269H152.335ZM146.046 61.8569C146.284 61.5743 146.403 61.2173 146.403 60.7885V56.3496H151.357V63.3278H150.241V57.4372H147.52V60.9826C147.52 61.5599 147.302 62.0606 146.863 62.4822C146.425 62.9062 145.862 63.117 145.175 63.117H144.77V62.2666H145.036C145.474 62.2762 145.809 62.1396 146.046 61.8546V61.8569Z" fill="white"/>
<path d="M154.422 62.521C153.691 61.8144 153.327 60.916 153.327 59.8261C153.327 58.7361 153.691 57.8402 154.422 57.1335C155.153 56.4268 156.048 56.0723 157.11 56.0723C158.171 56.0723 159.067 56.4268 159.797 57.1335C160.528 57.8402 160.892 58.7385 160.892 59.8261C160.892 60.9136 160.528 61.812 159.797 62.521C159.067 63.2277 158.171 63.5823 157.11 63.5823C156.048 63.5823 155.153 63.2277 154.422 62.521ZM155.217 57.9073C154.7 58.4055 154.443 59.0451 154.443 59.8261C154.443 60.607 154.702 61.2466 155.217 61.7449C155.735 62.2432 156.365 62.4923 157.107 62.4923C157.85 62.4923 158.482 62.2432 158.997 61.7449C159.515 61.2466 159.771 60.607 159.771 59.8261C159.771 59.0451 159.512 58.4055 158.997 57.9073C158.48 57.409 157.85 57.1598 157.107 57.1598C156.365 57.1598 155.732 57.409 155.217 57.9073Z" fill="white"/>
<path d="M163.165 61.8719C163.378 61.6251 163.486 61.3113 163.486 60.9304V56.3525H168.44V63.3307H167.324V57.4401H164.602V61.1101C164.602 61.7162 164.399 62.236 163.989 62.6744C163.579 63.1128 163.05 63.3307 162.398 63.3307H161.965V62.2432H162.257C162.648 62.2432 162.949 62.121 163.165 61.8743V61.8719Z" fill="white"/>
<path d="M170.115 56.3525H174.818V57.4138H171.232V63.3307H170.115V56.3525Z" fill="white"/>
<path d="M177.03 62.521C176.3 61.8144 175.936 60.916 175.936 59.8261C175.936 58.7361 176.3 57.8402 177.03 57.1335C177.761 56.4268 178.657 56.0723 179.718 56.0723C180.779 56.0723 181.675 56.4268 182.406 57.1335C183.137 57.8402 183.501 58.7385 183.501 59.8261C183.501 60.9136 183.137 61.812 182.406 62.521C181.675 63.2277 180.779 63.5823 179.718 63.5823C178.657 63.5823 177.761 63.2277 177.03 62.521ZM177.826 57.9073C177.308 58.4055 177.052 59.0451 177.052 59.8261C177.052 60.607 177.311 61.2466 177.826 61.7449C178.343 62.2432 178.973 62.4923 179.716 62.4923C180.458 62.4923 181.091 62.2432 181.606 61.7449C182.123 61.2466 182.38 60.607 182.38 59.8261C182.38 59.0451 182.121 58.4055 181.606 57.9073C181.088 57.409 180.458 57.1598 179.716 57.1598C178.973 57.1598 178.341 57.409 177.826 57.9073Z" fill="white"/>
<path d="M189.111 63.3307H184.909V56.3525H188.972C189.604 56.3525 190.131 56.537 190.555 56.9035C190.979 57.2724 191.19 57.7348 191.19 58.2929C191.19 58.5996 191.109 58.8822 190.946 59.1386C190.783 59.3949 190.558 59.5913 190.268 59.7327C190.594 59.8908 190.853 60.1183 191.042 60.4154C191.231 60.7124 191.327 61.0478 191.327 61.4191C191.327 61.9581 191.116 62.4133 190.692 62.7798C190.268 63.1487 189.741 63.3307 189.109 63.3307H189.111ZM188.831 57.3706H186.025V59.3374H188.958C189.274 59.3374 189.54 59.2511 189.753 59.0787C189.966 58.9062 190.074 58.6906 190.074 58.4295C190.074 58.1229 189.954 57.8689 189.717 57.6701C189.48 57.4713 189.185 57.3706 188.831 57.3706ZM188.972 60.274H186.028V62.3126H188.972C189.327 62.3126 189.621 62.2168 189.858 62.0276C190.095 61.8383 190.215 61.6012 190.215 61.3233C190.215 61.0167 190.095 60.7651 189.858 60.5687C189.621 60.3723 189.327 60.2764 188.972 60.2764V60.274Z" fill="white"/>
<path d="M60.1879 0.502391H0V66.6695C0 68.7848 1.7152 70.5 3.83046 70.5H37.6315C39.7468 70.5 41.462 68.7848 41.462 66.6695V44.1108H60.1855C65.6042 44.1108 69.9976 39.7174 69.9976 34.2986V10.3121C69.9976 4.89341 65.6042 0.5 60.1855 0.5L60.1879 0.502391Z" fill="#79BEE8"/>
<path d="M81.7165 18.1765C80.6289 19.2641 80.0851 20.6583 80.0851 22.3567C80.0851 24.0551 80.6289 25.447 81.7165 26.5369C82.804 27.6245 84.1431 28.1683 85.7314 28.1683C86.8621 28.1683 87.8921 27.8904 88.8168 27.3346C89.7415 26.7789 90.4338 26.0027 90.8914 24.999L93.7636 26.3046C93.0234 27.785 91.9358 28.9612 90.4985 29.8308C89.0612 30.7004 87.4729 31.1363 85.7314 31.1363C83.2927 31.1363 81.2254 30.3099 79.5269 28.6546C77.8285 27.0017 76.9805 24.9008 76.9805 22.3543C76.9805 19.8079 77.8285 17.707 79.5269 16.054C81.2254 14.4011 83.2927 13.5723 85.7314 13.5723C87.516 13.5723 89.133 14.0178 90.5799 14.9114C92.0268 15.8049 93.1096 17.0218 93.8283 18.567L90.956 19.8725C90.4985 18.8281 89.8014 18.0112 88.8671 17.4243C87.9305 16.8374 86.886 16.5427 85.7338 16.5427C84.1455 16.5427 82.8064 17.0865 81.7188 18.1741L81.7165 18.1765Z" fill="white"/>
<path d="M111.167 14.2236V30.5492H108.065V17.1294H99.903V30.5492H96.8008V14.2236H111.167Z" fill="white"/>
<path d="M130.006 30.5492H126.904V18.1092L118.481 30.5492H114.825V14.2236H117.927V26.3355L126.384 14.2236H130.008V30.5492H130.006Z" fill="white"/>
<path d="M137.744 18.1765C136.656 19.2641 136.112 20.6583 136.112 22.3567C136.112 24.0551 136.656 25.447 137.744 26.5369C138.831 27.6245 140.17 28.1683 141.759 28.1683C142.889 28.1683 143.919 27.8904 144.844 27.3346C145.769 26.7789 146.461 26.0027 146.919 24.999L149.791 26.3046C149.051 27.785 147.963 28.9612 146.526 29.8308C145.088 30.7004 143.5 31.1363 141.759 31.1363C139.32 31.1363 137.253 30.3099 135.554 28.6546C133.856 27.0017 133.008 24.9008 133.008 22.3543C133.008 19.8079 133.856 17.707 135.554 16.054C137.253 14.4011 139.32 13.5723 141.759 13.5723C143.543 13.5723 145.16 14.0178 146.607 14.9114C148.054 15.8049 149.137 17.0218 149.856 18.567L146.983 19.8725C146.526 18.8281 145.829 18.0112 144.894 17.4243C143.958 16.8374 142.913 16.5427 141.761 16.5427C140.173 16.5427 138.834 17.0865 137.746 18.1741L137.744 18.1765Z" fill="white"/>
<path d="M162.557 23.2691L158.247 23.7914C156.266 24.0309 155.276 24.7711 155.276 26.012C155.276 26.666 155.547 27.1811 156.093 27.5619C156.637 27.9428 157.377 28.1321 158.314 28.1321C159.598 28.1321 160.626 27.7632 161.399 27.023C162.171 26.2827 162.559 25.303 162.559 24.0836H163.735C163.735 26.0432 163.136 27.6697 161.938 28.9657C160.741 30.2617 159.251 30.9085 157.466 30.9085C155.921 30.9085 154.651 30.4677 153.662 29.5862C152.673 28.7046 152.177 27.5667 152.177 26.1749C152.177 24.7831 152.656 23.6668 153.614 22.7637C154.572 21.8606 155.878 21.3216 157.533 21.1467L162.561 20.5598V20.0376C162.561 19.1464 162.202 18.3727 161.483 17.7187C160.765 17.0647 159.905 16.7389 158.903 16.7389C157.967 16.7389 157.14 16.9904 156.422 17.4887C155.703 17.9894 155.245 18.6314 155.051 19.4147L152.146 18.4685C152.558 17.0982 153.374 15.9867 154.594 15.1387C155.813 14.2907 157.195 13.8643 158.74 13.8643C160.633 13.8643 162.267 14.4512 163.637 15.6274C165.007 16.8036 165.695 18.1954 165.695 19.8076V30.5492H162.561V23.2691H162.557Z" fill="white"/>
<path d="M169.314 30.5492V14.2236H172.417V20.8832H181.853V14.2236H184.955V30.5492H181.853V23.8226H172.417V30.5492H169.314Z" fill="white"/>
<path d="M203.791 30.5492H200.689V18.1092L192.266 30.5492H188.61V14.2236H191.713V26.3355L200.169 14.2236H203.793V30.5492H203.791Z" fill="white"/>
<path d="M210.06 23.758C210.256 25.1282 210.855 26.2182 211.857 27.0231C212.858 27.828 214.065 28.2305 215.481 28.2305C216.547 28.2305 217.517 27.9813 218.387 27.4807C219.257 26.98 219.91 26.3045 220.346 25.4564L223.188 26.5656C222.49 27.9598 221.451 29.0689 220.069 29.8954C218.686 30.7218 217.158 31.1363 215.481 31.1363C213.042 31.1363 210.987 30.3026 209.31 28.6377C207.633 26.9728 206.795 24.8767 206.795 22.3518C206.795 19.8269 207.612 17.7308 209.243 16.0659C210.875 14.401 212.889 13.5674 215.282 13.5674C217.675 13.5674 219.712 14.3891 221.389 16.0324C223.065 17.6757 223.904 19.7263 223.904 22.1865C223.904 22.6225 223.839 23.1447 223.707 23.7532H210.06V23.758ZM220.737 20.9504C220.584 19.5802 220.002 18.4902 218.991 17.6853C217.98 16.8804 216.765 16.478 215.349 16.478C213.934 16.478 212.803 16.8804 211.823 17.6853C210.843 18.4902 210.256 19.5778 210.06 20.9504H220.737Z" fill="white"/>
<path d="M9.72559 14.2264H12.8278V37.0798H9.72559V14.2264ZM13.7908 28.6882C12.2768 27.0353 11.5222 24.9392 11.5222 22.4023C11.5222 19.8655 12.2792 17.767 13.7908 16.1021C15.3024 14.4372 17.1709 13.6035 19.3892 13.6035C21.6074 13.6035 23.6053 14.4372 25.184 16.1021C26.7626 17.767 27.5508 19.8631 27.5508 22.388C27.5508 24.9129 26.7626 27.0089 25.184 28.6738C23.6053 30.3387 21.6745 31.1724 19.3892 31.1724C17.1038 31.1724 15.3024 30.3459 13.7908 28.6906V28.6882ZM14.5095 18.2245C13.3884 19.3241 12.8278 20.7183 12.8278 22.4047C12.8278 24.0912 13.3884 25.4782 14.5095 26.5682C15.6306 27.6557 17.008 28.1995 18.6394 28.1995C20.2707 28.1995 21.6482 27.6557 22.7693 26.5682C23.8904 25.4806 24.4509 24.0936 24.4509 22.4047C24.4509 20.7159 23.8904 19.3241 22.7693 18.2245C21.6482 17.125 20.2707 16.5764 18.6394 16.5764C17.008 16.5764 15.6306 17.1274 14.5095 18.2245Z" fill="white"/>
<path d="M30.5547 30.5496V14.224H33.6569V30.5496H30.5547ZM38.654 17.0651C37.2814 17.0651 36.1075 17.4676 35.1278 18.2725C34.148 19.0774 33.6593 20.0476 33.6593 21.1782H32.1908C32.1908 19.2403 32.7993 17.5538 34.0186 16.1165C35.238 14.6792 36.716 13.9629 38.46 13.9629H39.3751V17.0651H38.6564H38.654Z" fill="white"/>
<path d="M43.2731 28.6575C41.5435 27.0046 40.6787 24.9037 40.6787 22.3572C40.6787 19.8108 41.5435 17.7099 43.2731 16.057C45.0026 14.4041 47.1083 13.5752 49.5901 13.5752C52.0719 13.5752 54.1776 14.4017 55.9071 16.057C57.6367 17.7123 58.5039 19.8108 58.5039 22.3572C58.5039 24.9037 57.6391 27.0046 55.9071 28.6575C54.1776 30.3128 52.0719 31.1393 49.5901 31.1393C47.1083 31.1393 45.0026 30.3128 43.2731 28.6575ZM45.4602 18.177C44.3391 19.267 43.7785 20.6588 43.7785 22.3572C43.7785 24.0557 44.3391 25.4475 45.4602 26.5375C46.5813 27.625 47.9587 28.1688 49.5901 28.1688C51.2215 28.1688 52.5989 27.625 53.72 26.5375C54.8411 25.4499 55.4017 24.0557 55.4017 22.3572C55.4017 20.6588 54.8411 19.267 53.72 18.177C52.5989 17.0894 51.2215 16.5457 49.5901 16.5457C47.9587 16.5457 46.5813 17.0894 45.4602 18.177Z" fill="white"/>
<path d="M59.7036 28.8927C59.7036 28.3034 59.8928 27.8123 60.2761 27.4219C60.657 27.0314 61.1337 26.835 61.7062 26.835C62.2788 26.835 62.7914 27.0314 63.1915 27.4219C63.5915 27.8123 63.7904 28.3034 63.7904 28.8927C63.7904 29.482 63.5939 29.9755 63.2034 30.366C62.813 30.7565 62.3267 30.9529 61.7446 30.9529C61.1625 30.9529 60.6762 30.7565 60.2881 30.366C59.8976 29.9755 59.7012 29.4844 59.7012 28.8927H59.7036Z" fill="white"/>
</svg>
