<svg width="273" height="39" viewBox="0 0 273 39" fill="none" xmlns="http://www.w3.org/2000/svg">
<path d="M34.6133 0H28.3203V6.29311H34.6133V0Z" fill="#4224FD"/>
<path d="M18.8798 15.7324H12.5859V22.0255H18.8798V15.7324Z" fill="#4224FD"/>
<path fill-rule="evenodd" clip-rule="evenodd" d="M0 3.14648V34.6119H31.466V9.4396H25.173V3.14648H0ZM6.29302 9.4396H25.173V28.3189H6.29302V9.4396Z" fill="#4224FD"/>
<path d="M49.334 30.1376V9.37939H54.3159L60.5433 22.2494H61.5815L67.8088 9.37939H72.7907V30.1376H69.4698V13.531L69.5112 13.1158H69.4275L63.2415 25.9859H58.8824L52.6964 13.1158H52.6135L52.655 13.531V30.1376H49.334Z" fill="black"/>
<path d="M78.6055 30.1376V9.37939H81.9265V24.948L81.885 25.3631H81.9688L93.1366 9.37939H96.8731V30.1376H93.5512V14.5689L93.5927 14.1537H93.5097L82.3419 30.1376H78.6055Z" fill="black"/>
<path d="M102.689 30.1376V9.37939H106.01V17.8902H117.635V9.37939H120.956V30.1376H117.635V21.004H106.01V30.1376H102.689Z" fill="black"/>
<path d="M126.771 30.1376V9.37939H130.092V27.0238H140.886V9.37939H144.208V27.0238H147.115V34.9119H143.793V30.1376H126.771Z" fill="black"/>
<path d="M150.652 30.1376V9.37939H153.973V24.948L153.932 25.3631H154.015L165.183 9.37939H168.919V30.1376H165.598V14.5689L165.64 14.1537H165.557L154.389 30.1376H150.652Z" fill="black"/>
<path d="M176.353 27.0234C174.306 25.003 173.281 22.5812 173.281 19.7581C173.281 16.935 174.306 14.527 176.353 12.5342C178.401 10.5138 180.975 9.39283 184.075 9.17137V1.07568H187.397V9.17137C190.497 9.39283 193.071 10.5138 195.119 12.5342C197.167 14.527 198.191 16.935 198.191 19.7581C198.191 22.5812 197.167 25.003 195.119 27.0234C193.071 29.0163 190.497 30.1233 187.397 30.3451V38.0252H184.075V30.3451C180.975 30.1233 178.401 29.0163 176.353 27.0234ZM187.397 12.2852V27.2311C189.555 27.1203 191.341 26.373 192.753 24.9891C194.164 23.5775 194.87 21.8339 194.87 19.7581C194.87 17.6823 194.164 15.9524 192.753 14.5686C191.341 13.157 189.555 12.3958 187.397 12.2852ZM178.72 14.5686C177.309 15.9524 176.602 17.6823 176.602 19.7581C176.602 21.8339 177.309 23.5775 178.72 24.9891C180.131 26.373 181.917 27.1203 184.075 27.2311V12.2852C181.917 12.3958 180.131 13.157 178.72 14.5686Z" fill="black"/>
<path d="M202.547 38.0248V9.37857H205.868V12.6998H205.909L206.325 12.0771C206.795 11.3575 207.639 10.6655 208.857 10.0013C210.075 9.3093 211.569 8.96338 213.341 8.96338C216.109 8.96338 218.461 10.0013 220.399 12.0771C222.336 14.1252 223.305 16.6854 223.305 19.7577C223.305 22.8298 222.336 25.4039 220.399 27.4797C218.461 29.5278 216.109 30.5519 213.341 30.5519C211.569 30.5519 210.061 30.2198 208.816 29.5555C207.598 28.8635 206.767 28.1439 206.325 27.3966L205.909 26.8154H205.868V38.0248H202.547ZM207.86 14.2359C206.532 15.6752 205.868 17.5157 205.868 19.7577C205.868 21.9995 206.532 23.8401 207.86 25.2793C209.216 26.7185 210.905 27.4382 212.925 27.4382C214.946 27.4382 216.62 26.7185 217.95 25.2793C219.306 23.8401 219.984 21.9995 219.984 19.7577C219.984 17.5157 219.306 15.6752 217.95 14.2359C216.62 12.7967 214.946 12.0771 212.925 12.0771C210.905 12.0771 209.216 12.7967 207.86 14.2359Z" fill="black"/>
<path d="M246.776 30.1376V9.37939H250.098V30.1376H246.776ZM227.887 30.1376V9.37939H231.208V16.4372H236.19C238.515 16.4372 240.411 17.1014 241.877 18.4299C243.345 19.7308 244.078 21.3499 244.078 23.2874C244.078 25.2248 243.345 26.8578 241.877 28.1863C240.411 29.4871 238.515 30.1376 236.19 30.1376H227.887ZM231.208 27.0238H236.19C237.629 27.0238 238.75 26.6779 239.552 25.9859C240.355 25.294 240.756 24.3945 240.756 23.2874C240.756 22.1803 240.355 21.2807 239.552 20.5888C238.75 19.8969 237.629 19.5508 236.19 19.5508H231.208V27.0238Z" fill="black"/>
<path d="M272.811 33.6685H254.561V30.5219H272.811V33.6685Z" fill="#4224FD"/>
</svg>
