<svg width="378" height="53" viewBox="0 0 378 53" fill="none" xmlns="http://www.w3.org/2000/svg">
<path d="M47.8932 0H39.1855V8.70776H47.8932V0Z" fill="#4224FD"/>
<path d="M26.1238 21.769H17.415V30.4768H26.1238V21.769Z" fill="#4224FD"/>
<path fill-rule="evenodd" clip-rule="evenodd" d="M0 4.35352V47.8921H43.5392V13.0613H34.8316V4.35352H0ZM8.70759 13.0613H34.8316V39.1846H8.70759V13.0613Z" fill="#4224FD"/>
<path d="M68.2627 41.7015V12.9785H75.1561L83.7729 30.7868H85.2094L93.8262 12.9785H100.72V41.7015H96.1244V18.7231L96.1817 18.1486H96.0658L87.5064 35.9568H81.4747L72.9153 18.1486H72.8005L72.8579 18.7231V41.7015H68.2627Z" fill="white"/>
<path d="M108.767 41.7015V12.9785H113.362V34.5208L113.304 35.0952H113.42L128.873 12.9785H134.043V41.7015H129.447V20.1593L129.504 19.5848H129.389L113.937 41.7015H108.767Z" fill="white"/>
<path d="M142.09 41.7015V12.9785H146.685V24.7549H162.77V12.9785H167.365V41.7015H162.77V29.0634H146.685V41.7015H142.09Z" fill="white"/>
<path d="M175.413 41.7015V12.9785H180.008V37.393H194.944V12.9785H199.54V37.393H203.562V48.3078H198.965V41.7015H175.413Z" fill="white"/>
<path d="M208.455 41.7015V12.9785H213.05V34.5208L212.993 35.0952H213.108L228.56 12.9785H233.731V41.7015H229.135V20.1593L229.193 19.5848H229.078L213.625 41.7015H208.455Z" fill="white"/>
<path d="M244.019 37.3921C241.185 34.5964 239.768 31.2453 239.768 27.3391C239.768 23.4327 241.185 20.1008 244.019 17.3435C246.852 14.5477 250.414 12.9967 254.703 12.6903V1.48828H259.299V12.6903C263.589 12.9967 267.15 14.5477 269.984 17.3435C272.818 20.1008 274.235 23.4327 274.235 27.3391C274.235 31.2453 272.818 34.5964 269.984 37.3921C267.15 40.1496 263.589 41.6814 259.299 41.9883V52.6153H254.703V41.9883C250.414 41.6814 246.852 40.1496 244.019 37.3921ZM259.299 16.9988V37.6794C262.286 37.5262 264.756 36.4921 266.71 34.5772C268.663 32.624 269.639 30.2113 269.639 27.3391C269.639 24.4667 268.663 22.0731 266.71 20.1583C264.756 18.2051 262.286 17.1519 259.299 16.9988ZM247.293 20.1583C245.34 22.0731 244.363 24.4667 244.363 27.3391C244.363 30.2113 245.34 32.624 247.293 34.5772C249.246 36.4921 251.716 37.5262 254.703 37.6794V16.9988C251.716 17.1519 249.246 18.2051 247.293 20.1583Z" fill="white"/>
<path d="M280.262 52.615V12.9773H284.857V17.5729H284.914L285.489 16.7112C286.14 15.7156 287.308 14.7581 288.993 13.839C290.678 12.8815 292.746 12.4028 295.197 12.4028C299.027 12.4028 302.282 13.839 304.964 16.7112C307.644 19.5452 308.984 23.0878 308.984 27.3388C308.984 31.5898 307.644 35.1515 304.964 38.0238C302.282 40.8578 299.027 42.2748 295.197 42.2748C292.746 42.2748 290.659 41.8152 288.936 40.896C287.251 39.9386 286.101 38.9429 285.489 37.9088L284.914 37.1046H284.857V52.615H280.262ZM287.614 19.6984C285.776 21.69 284.857 24.2367 284.857 27.3388C284.857 30.4409 285.776 32.9877 287.614 34.9791C289.49 36.9706 291.827 37.9663 294.622 37.9663C297.419 37.9663 299.735 36.9706 301.574 34.9791C303.451 32.9877 304.389 30.4409 304.389 27.3388C304.389 24.2367 303.451 21.69 301.574 19.6984C299.735 17.707 297.419 16.7112 294.622 16.7112C291.827 16.7112 289.49 17.707 287.614 19.6984Z" fill="white"/>
<path d="M341.461 41.7015V12.9785H346.058V41.7015H341.461ZM315.324 41.7015V12.9785H319.919V22.7443H326.813C330.03 22.7443 332.653 23.6635 334.683 25.5017C336.713 27.3017 337.728 29.542 337.728 32.2229C337.728 34.9037 336.713 37.1633 334.683 39.0015C332.653 40.8015 330.03 41.7015 326.813 41.7015H315.324ZM319.919 37.393H326.813C328.804 37.393 330.355 36.9144 331.465 35.9568C332.577 34.9994 333.131 33.7548 333.131 32.2229C333.131 30.691 332.577 29.4463 331.465 28.4889C330.355 27.5315 328.804 27.0527 326.813 27.0527H319.919V37.393Z" fill="white"/>
<path d="M377.485 46.5874H352.232V42.2335H377.485V46.5874Z" fill="#4224FD"/>
</svg>
