<svg width="96" height="31" viewBox="0 0 96 31" fill="none" xmlns="http://www.w3.org/2000/svg">
<g clip-path="url(#clip0_8001_1118)">
<path d="M6.42837 0.71842C3.75149 1.30095 1.49652 3.48541 0.783653 6.19415C0.609074 6.83493 0.56543 8.5825 0.56543 15.5C0.56543 24.7621 0.56543 24.8495 1.38013 26.466C1.91842 27.5 3.63511 29.1893 4.66803 29.6699C6.42837 30.5 6.64659 30.5145 15.9575 30.4708C24.3809 30.4272 24.5118 30.4126 25.3556 30.0922C27.6979 29.2184 29.4582 27.3398 30.1565 24.9806C30.3602 24.2815 30.3893 22.8107 30.3893 12.3398V0.499975L18.8671 0.51454C9.74537 0.51454 7.14123 0.558228 6.42837 0.71842ZM29.3418 13.0534L29.2982 24.6019L28.8327 25.5922C27.9161 27.5291 26.0976 28.9563 24.0754 29.3204C22.8824 29.5388 8.05777 29.5388 6.87937 29.3204C5.68641 29.1019 4.63894 28.5631 3.6933 27.7039C2.74767 26.8446 2.23848 26.0437 1.86022 24.8058C1.59835 23.9757 1.58381 23.3349 1.58381 15.5874C1.58381 6.51454 1.59835 6.26696 2.41306 4.86891C3.37324 3.23784 5.24996 1.92716 6.9812 1.66502C7.41765 1.60677 12.6259 1.54852 18.5761 1.53395L29.3855 1.51939L29.3418 13.0534Z" fill="white"/>
<path d="M8.93028 8.18943C7.49 8.68458 6.47163 9.79137 6.02063 11.3351C5.74422 12.2962 5.80241 13.0098 6.2534 14.0438C6.90807 15.5147 8.18832 16.2428 10.8797 16.6943C13.4839 17.1166 14.1385 17.4953 14.1385 18.5584C14.1385 19.2865 13.5857 19.9419 12.8001 20.1603C11.9418 20.3933 10.6033 20.3351 9.91956 20.0147C9.29399 19.738 8.71206 19.0098 8.71206 18.5147C8.71206 18.2962 8.53748 18.2671 7.16994 18.2671H5.61328L5.71512 18.8788C5.87515 19.9564 6.61711 21.2817 7.41726 21.9079C9.26489 23.3642 12.4655 23.5681 14.6186 22.3448L15.4042 21.9079V22.4176V22.9273H16.8591H18.3139V21.136V19.3448L18.7503 18.9224C18.9831 18.6894 19.2304 18.5584 19.2886 18.6166C19.3468 18.6749 19.9578 19.6506 20.6416 20.7865L21.9073 22.8545L23.5222 22.8982C24.4242 22.9127 25.1516 22.9127 25.1516 22.869C25.1516 22.8254 24.2641 21.3254 23.173 19.505L21.1944 16.2137L22.431 14.8739C24.8752 12.2088 25.1516 11.8885 25.1516 11.8011C25.1516 11.7574 24.366 11.7137 23.4203 11.7137H21.6745L20.0306 13.505L18.3866 15.2962L18.343 11.6846L18.3139 8.07293H16.8591H15.4042V8.88846V9.70399L14.735 9.10691C13.8185 8.30594 12.5819 7.92729 10.9088 7.92729C10.1087 7.94186 9.39582 8.02924 8.93028 8.18943ZM12.3055 10.7088C12.8583 10.9127 13.3384 11.3788 13.673 12.0341C13.9494 12.5584 13.9931 12.5875 14.6768 12.5875H15.4042V13.8254V15.0487L14.9387 14.772C14.3277 14.4224 13.6439 14.2477 11.7672 13.971C9.51221 13.636 8.71206 13.1409 8.71206 12.0923C8.71206 11.6409 9.23579 11.0001 9.78863 10.7525C10.3269 10.5195 11.7381 10.4904 12.3055 10.7088Z" fill="white"/>
<path d="M62.3955 12.7325V13.752H63.4866H64.5777V12.7325V11.7131H63.4866H62.3955V12.7325Z" fill="white"/>
<path d="M36.0926 17.4219L36.1362 22.9995L37.271 23.0432L38.3912 23.0869V20.8879V18.7034H40.0788C41.81 18.7034 42.2028 18.7908 42.392 19.2423C42.4647 19.3879 42.552 20.2325 42.6102 21.1209C42.6538 21.9947 42.7557 22.8102 42.8139 22.8976C42.9302 23.0869 45.2434 23.1452 45.418 22.9704C45.4762 22.9267 45.4034 22.7083 45.2725 22.5044C45.0979 22.2277 44.9961 21.6743 44.9379 20.5238C44.8506 18.8199 44.7342 18.4704 44.1087 17.9753C43.6868 17.6549 43.7013 17.6403 44.3851 17.2471C44.807 16.9995 45.2725 15.8199 45.258 15.0044C45.258 14.0287 44.967 13.3588 44.2978 12.7034C43.5122 11.9461 43.0466 11.8588 39.3514 11.8588H36.0635L36.0926 17.4219ZM42.0283 13.9413C42.9302 14.2471 43.2358 15.616 42.5374 16.3005C42.2028 16.65 42.1155 16.6646 40.2825 16.6646H38.3912V15.2083V13.752L39.9624 13.7665C40.8208 13.7665 41.7518 13.8393 42.0283 13.9413Z" fill="white"/>
<path d="M71.2697 13.6799V15.5003L70.6732 15.078C68.8838 13.7673 66.3524 14.8595 65.6832 17.2188C64.8103 20.3498 66.3233 23.2188 68.8547 23.2188C69.844 23.2188 70.3386 23.044 70.9497 22.4469L71.4152 21.9954V22.5343V23.0877L72.4772 23.044L73.5247 23.0003L73.5683 17.4226L73.5974 11.8595H72.4336H71.2697V13.6799ZM70.6005 16.8838C71.1242 17.3644 71.2697 17.8304 71.2697 18.9518C71.2697 20.5683 70.7169 21.3255 69.5239 21.3255C68.3019 21.3255 67.7781 20.5974 67.7781 18.9081C67.7781 17.2624 68.331 16.5197 69.5385 16.5197C70.0477 16.5197 70.295 16.6071 70.6005 16.8838Z" fill="white"/>
<path d="M91.9285 13.6072V14.7723H91.3466H90.7646V15.5732V16.3742H91.3466H91.9285V19.2286C91.9285 20.9033 91.9867 22.1849 92.074 22.3596C92.3504 22.8548 93.0051 23.0732 94.2562 23.0732H95.4201V22.2723C95.4201 21.4859 95.4201 21.4713 94.9982 21.4713C94.0962 21.4713 94.1107 21.5296 94.1107 18.8354V16.3742H94.7654H95.4201V15.5732V14.7723H94.7654H94.1107V13.6072V12.4422H93.0196H91.9285V13.6072Z" fill="white"/>
<path d="M48.4288 14.6993C47.4977 14.9905 46.6393 15.7769 46.232 16.6944C45.9556 17.3352 45.8974 17.7138 45.8828 18.9226C45.8828 20.2333 45.9265 20.4663 46.2902 21.2235C46.9594 22.5779 48.2105 23.2624 50 23.2478C50.7565 23.2478 51.1202 23.1604 51.7458 22.8255C52.6041 22.3886 53.3024 21.6459 53.4479 20.9905L53.5497 20.5973H52.4586C51.4402 20.5973 51.3384 20.6265 50.9311 21.0342C50.0436 21.9226 48.5015 21.4274 48.196 20.1604L48.036 19.5051L50.8583 19.4614L53.6661 19.4323V18.6604C53.6661 16.9711 52.8805 15.5585 51.5712 14.8886C50.8147 14.4954 49.3162 14.408 48.4288 14.6993ZM50.6983 16.6362C51.062 16.9129 51.3384 17.408 51.3384 17.743C51.3384 17.9468 51.0911 17.976 49.7381 17.976C48.7052 17.976 48.1378 17.9177 48.1378 17.8158C48.1378 17.5828 48.4288 17.0731 48.7634 16.6944C49.1416 16.2867 50.2327 16.243 50.6983 16.6362Z" fill="white"/>
<path d="M56.2411 14.6698C55.0045 15.063 54.248 16.0824 54.248 17.3639C54.248 17.9465 54.3353 18.194 54.6408 18.5727C55.1063 19.1261 55.6301 19.3591 57.3468 19.796C58.6998 20.1455 59.3399 20.4804 59.3399 20.8154C59.3399 21.4125 58.0742 21.7766 57.0995 21.4416C56.5466 21.2523 56.3866 21.1067 56.2266 20.5533C56.1684 20.3494 55.9647 20.3057 55.0481 20.3057C54.0152 20.3057 53.957 20.3202 53.957 20.6261C53.9716 21.6164 54.9027 22.7086 56.052 23.0727C56.7794 23.3057 58.6416 23.3202 59.4563 23.0872C61.0857 22.6358 61.9586 20.9028 61.2748 19.4756C60.9256 18.7474 60.1837 18.3251 58.4815 17.9028C56.6485 17.4513 56.4302 17.3348 56.4302 16.8834C56.4302 16.4173 56.8085 16.228 57.725 16.228C58.4961 16.228 59.0489 16.563 59.0489 17.029C59.0489 17.2037 59.2671 17.2474 60.14 17.2474C61.1439 17.2474 61.2312 17.2183 61.2312 16.9562C61.2312 16.4756 60.8529 15.7183 60.4164 15.296C59.6308 14.5678 57.5795 14.262 56.2411 14.6698Z" fill="white"/>
<path d="M76.7688 14.699C75.8377 15.0049 74.863 15.9952 74.5284 16.9854C74.1792 17.9903 74.1792 19.8398 74.5138 20.8301C75.1539 22.7087 77.4962 23.7136 79.693 23.0583C80.464 22.8252 81.5261 21.8786 81.817 21.1359L82.0353 20.5971H80.8859C79.9258 20.5971 79.693 20.6408 79.533 20.8592C78.6746 22.0825 76.5069 21.3252 76.5069 19.8107V19.432L79.3147 19.4029L82.108 19.3592L82.0644 18.4854C82.0353 18.0049 81.948 17.3786 81.8607 17.1019C81.6279 16.2573 80.8278 15.2816 80.0712 14.9175C79.1983 14.4952 77.7144 14.3932 76.7688 14.699ZM79.1983 16.6942C79.402 16.8835 79.6202 17.2476 79.693 17.4952L79.8385 17.9757H78.1654C77.2489 17.9757 76.5069 17.9466 76.5069 17.9029C76.5069 17.6117 76.9725 16.8107 77.2489 16.6068C77.7581 16.2573 78.7328 16.301 79.1983 16.6942Z" fill="white"/>
<path d="M86.4725 14.6403C86.2397 14.7277 85.8179 15.0044 85.5705 15.252L85.0904 15.7034V15.2374V14.7714H83.9993H82.9082V18.9219V23.0724H83.9993H85.0904V20.451C85.0904 17.6257 85.2068 17.0578 85.8324 16.6063C86.2252 16.3296 87.2436 16.3005 87.5782 16.5626C88.0874 16.9558 88.1456 17.3491 88.1456 20.2325V23.0869L89.2803 23.0432L90.4005 22.9995V19.7228C90.4005 16.5481 90.386 16.4316 90.0514 15.8491C89.8623 15.4995 89.4695 15.1063 89.1348 14.917C88.4656 14.5384 87.1272 14.4073 86.4725 14.6403Z" fill="white"/>
<path d="M62.3955 18.9228V23.0732H63.4866H64.5777V18.9228V14.7723H63.4866H62.3955V18.9228Z" fill="white"/>
</g>
<defs>
<clipPath id="clip0_8001_1118">
<rect width="95" height="30" fill="white" transform="translate(0.419922 0.5)"/>
</clipPath>
</defs>
</svg>
