<svg width="19" height="25" viewBox="0 0 19 25" fill="none" xmlns="http://www.w3.org/2000/svg">
<mask id="path-1-inside-1_627_4756" fill="white">
<path d="M1.0498 0.541443H18.5342V24.5678H1.0498V0.541443Z"/>
</mask>
<path d="M18.5342 24.5678V23.3678H1.0498V24.5678V25.7678H18.5342V24.5678Z" fill="#1F3F87" mask="url(#path-1-inside-1_627_4756)"/>
<rect x="10.252" y="0.541382" width="0.920231" height="0.920231" transform="rotate(90 10.252 0.541382)" fill="#1F3F87" stroke="#1F3F87" stroke-width="0.5"/>
<path fill-rule="evenodd" clip-rule="evenodd" d="M1.17291 12.1229L9.49479 20.4448C9.65893 20.6089 9.92506 20.6089 10.0892 20.4448L18.4111 12.1229C18.5752 11.9587 18.5752 11.6926 18.4111 11.5285C18.2469 11.3643 17.9808 11.3643 17.8167 11.5285L10.2123 19.1328L10.2123 3.46167H9.37168L9.37168 19.1328L1.76733 11.5285C1.60319 11.3643 1.33706 11.3643 1.17291 11.5285C1.00877 11.6926 1.00877 11.9587 1.17291 12.1229Z" fill="#1F3F87" stroke="#1F3F87" stroke-width="0.5"/>
</svg>
