<svg width="35" height="35" viewBox="0 0 35 35" fill="none" xmlns="http://www.w3.org/2000/svg">
<path d="M17.1882 2.96631C9.37665 2.96631 3.02148 9.32148 3.02148 17.133C3.02148 24.9445 9.37665 31.2996 17.1882 31.2996C24.9997 31.2996 31.3548 24.9445 31.3548 17.133C31.3548 9.32148 24.9997 2.96631 17.1882 2.96631ZM17.1882 28.4663C10.9392 28.4663 5.85482 23.3819 5.85482 17.133C5.85482 10.8841 10.9392 5.79964 17.1882 5.79964C23.4371 5.79964 28.5215 10.8841 28.5215 17.133C28.5215 23.3819 23.4371 28.4663 17.1882 28.4663Z" fill="white"/>
<path d="M15.7715 15.716H18.6048V24.216H15.7715V15.716ZM15.7715 10.0493H18.6048V12.8826H15.7715V10.0493Z" fill="white"/>
</svg>
