<svg width="21" height="20" viewBox="0 0 21 20" fill="none" xmlns="http://www.w3.org/2000/svg">
<path d="M20.6121 0.687127C20.2693 0.249293 19.74 0 19.1571 0C18.78 0 18.39 0.10265 17.9979 0.30376L1.25579 8.88656C0.0643661 9.49618 -0.0170621 10.4179 0.00222356 10.7845C0.0215092 11.1532 0.203651 12.0582 1.45079 12.5443L3.58935 13.3717C3.99435 13.5289 4.44863 13.6106 4.9372 13.6106C5.01434 13.6106 5.08934 13.6001 5.16434 13.5959C5.13434 13.6336 5.10006 13.6608 5.0722 13.7006C4.67363 14.283 4.65434 15.0749 5.01434 15.9254C5.02077 15.9401 5.02506 15.9527 5.03149 15.9652C5.66362 17.3353 6.36862 18.8834 6.45219 19.0971C6.66219 19.6313 7.19576 20 7.7829 20C8.68504 20 8.95289 19.5747 10.4315 17.2243C10.5472 17.0525 10.8022 16.6503 10.845 16.1412C11.0186 16.2103 11.1793 16.2732 11.3186 16.3276L13.6929 17.2683C14.1686 17.4568 14.5843 17.6244 14.8029 17.7145C14.8714 17.7543 14.9422 17.7899 15.0171 17.8192C15.1843 17.8842 15.3621 17.9177 15.5421 17.9177C16.62 17.9177 16.8793 17.0043 17.0164 16.5162C17.085 16.2753 17.1793 15.9401 17.2821 15.5693L20.8971 2.58092C21.1714 1.6005 20.835 0.974128 20.6121 0.687127ZM9.24218 16.4806C9.24218 16.4806 7.90076 18.6153 7.78718 18.6153C7.78504 18.6153 7.7829 18.6132 7.78076 18.6111C7.65004 18.2654 6.32362 15.3933 6.32362 15.3933C6.07934 14.8172 6.12434 14.3249 6.54433 14.3249C6.63648 14.3249 6.7479 14.348 6.87648 14.4003L7.90504 14.9241C8.07647 15.0393 8.26504 15.1377 8.47075 15.2173L8.52218 15.2362L8.61861 15.2844C9.41361 15.6971 9.66646 15.8458 9.24218 16.4806ZM19.5343 2.2185L15.9214 15.2048C15.7179 15.9359 15.5464 16.535 15.5443 16.535C15.5421 16.5329 15.5379 16.5204 15.5379 16.5183C15.5379 16.5141 14.9486 16.2774 14.2286 15.9904L11.8565 15.0456C11.1365 14.7607 9.95575 14.2998 9.23146 14.0253L9.11146 13.9793L8.6679 13.7551C8.22861 13.4262 8.19004 12.8836 8.63147 12.4248L15.9686 4.74076C16.2643 4.43281 16.3736 4.27569 16.3114 4.27569C16.26 4.27569 16.0971 4.37834 15.825 4.58783L6.54005 11.7461C6.13505 12.054 5.52005 12.2279 4.94149 12.2279C4.64577 12.2279 4.35649 12.1818 4.1122 12.0876L1.97364 11.2601C1.2515 10.9815 1.22365 10.464 1.9115 10.11L18.6536 1.52718C18.8464 1.42872 19.0157 1.38263 19.1571 1.38263C19.5171 1.38263 19.6821 1.69058 19.5343 2.2185Z" fill="white"/>
</svg>
