<svg width="22" height="22" viewBox="0 0 22 22" fill="none" xmlns="http://www.w3.org/2000/svg">
<path fill-rule="evenodd" clip-rule="evenodd" d="M18.7947 3.19708C16.7266 1.13652 13.9762 0.00115817 11.0459 0C5.00822 0 0.0942634 4.89009 0.0918471 10.9008C0.0910417 12.8222 0.59547 14.6977 1.554 16.3508L0 22L5.80692 20.4841C7.40684 21.3525 9.20822 21.8102 11.0416 21.811H11.0461C17.0832 21.811 21.9976 16.9203 22 10.9095C22.0012 7.99663 20.8628 5.25765 18.7947 3.19708ZM11.0461 19.9698H11.0423C9.40865 19.9691 7.80626 19.5324 6.40842 18.7068L6.07593 18.5104L2.63007 19.41L3.54985 16.0664L3.33334 15.7236C2.42197 14.2809 1.9406 12.6135 1.94132 10.9015C1.94332 5.90563 6.02764 1.84119 11.0497 1.84119C13.4815 1.84211 15.7674 2.78584 17.4864 4.49851C19.2054 6.21118 20.1515 8.48772 20.1506 10.9088C20.1485 15.905 16.0642 19.9698 11.0461 19.9698ZM16.0401 13.1837C15.7664 13.0473 14.4207 12.3883 14.1698 12.2974C13.9189 12.2065 13.7365 12.1611 13.554 12.4338C13.3716 12.7065 12.847 13.32 12.6873 13.5018C12.5277 13.6836 12.368 13.7063 12.0943 13.57C11.8206 13.4336 10.9387 13.146 9.89327 12.218C9.07965 11.4958 8.5303 10.6037 8.37065 10.331C8.211 10.0583 8.35367 9.91088 8.49069 9.7751C8.61379 9.65305 8.76438 9.45696 8.90124 9.29788C9.03807 9.13882 9.08368 9.0252 9.1749 8.84343C9.26615 8.66163 9.22054 8.50254 9.15211 8.3662C9.08368 8.22987 8.53633 6.88912 8.30821 6.34374C8.08607 5.81259 7.8604 5.88445 7.6924 5.87614C7.53293 5.86824 7.35028 5.86655 7.16784 5.86655C6.98536 5.86655 6.68885 5.93473 6.43795 6.2074C6.18708 6.48011 5.48004 7.13911 5.48004 8.47982C5.48004 9.82054 6.46077 11.1158 6.59763 11.2976C6.73446 11.4794 8.52761 14.2308 11.2732 15.4106C11.9263 15.6913 12.4361 15.8588 12.8336 15.9845C13.4893 16.1917 14.0859 16.1625 14.5575 16.0924C15.0834 16.0142 16.1769 15.4334 16.405 14.7971C16.6331 14.1608 16.6331 13.6154 16.5646 13.5018C16.4962 13.3882 16.3138 13.32 16.0401 13.1837Z" fill="white"/>
</svg>
