<svg width="15" height="16" viewBox="0 0 15 16" fill="none" xmlns="http://www.w3.org/2000/svg">
<path d="M0.302307 12.3059C0.392241 12.3059 0.482177 12.3059 0.572111 12.3059C1.17917 12.3059 1.68505 12.1523 2.08975 11.845C2.47197 11.5613 2.74177 11.1477 2.89916 10.604C3.03406 10.084 3.10151 9.44574 3.10151 8.68933C3.10151 8.59477 3.10151 8.4884 3.10151 8.37021C3.07902 8.20475 3.06778 8.0511 3.06778 7.90927C3.06778 7.76744 3.06778 7.62562 3.06778 7.48379H-0.00121975V0.00235558H5.76581V8.90207C5.76581 10.344 5.52973 11.5495 5.05757 12.5187C4.58542 13.5115 3.98961 14.1733 3.27013 14.5043C2.55066 14.8588 1.86491 15.0361 1.21289 15.0361C0.83067 15.0361 0.425967 14.9889 -0.00121975 14.8943L0.302307 12.3059ZM8.86853 12.3059C8.95847 12.3059 9.0484 12.3059 9.13834 12.3059C9.74539 12.3059 10.2513 12.1523 10.656 11.845C11.0382 11.5613 11.308 11.1477 11.4654 10.604C11.6003 10.084 11.6677 9.44574 11.6677 8.68933C11.6677 8.59477 11.6677 8.4884 11.6677 8.37021C11.6452 8.20475 11.634 8.0511 11.634 7.90927C11.634 7.76744 11.634 7.62562 11.634 7.48379H8.565V0.00235558H14.332V8.90207C14.332 10.344 14.096 11.5495 13.6238 12.5187C13.1516 13.5115 12.5558 14.1733 11.8364 14.5043C11.1169 14.8588 10.4311 15.0361 9.77912 15.0361C9.3969 15.0361 8.99219 14.9889 8.565 14.8943L8.86853 12.3059Z" fill="#86BCE8"/>
</svg>
