<?xml version="1.0" encoding="utf-8"?>
<svg viewBox="0 0 74 73" xmlns="http://www.w3.org/2000/svg" xmlns:xlink="http://www.w3.org/1999/xlink">
   <svg fill="none" viewBox="0 0 74 73" id="arrow" xmlns="http://www.w3.org/2000/svg">
      <path fill="currentColor" stroke="currentColor" d="m16.732 54.512 1.786-1.786 1.787 1.786-1.787 1.786z" />
      <path fill-rule="evenodd" clip-rule="evenodd"
         d="M56.399 50.096v-32.31c0-.637-.517-1.154-1.154-1.154h-32.31a1.154 1.154 0 0 0 0 2.308H52.46L22.038 49.361l1.632 1.632 30.42-30.42v29.523a1.154 1.154 0 1 0 2.309 0Z"
         fill="currentColor" stroke="currentColor" />
   </svg>
   <svg fill="none" viewBox="0 0 24 24" id="arrow-sm" xmlns="http://www.w3.org/2000/svg">
      <path d="M14.43 5.93 20.5 12l-6.07 6.07M3.5 12h16.83" stroke="currentColor" stroke-width="1.5"
         stroke-miterlimit="10" stroke-linecap="round" stroke-linejoin="round" />
   </svg>
   <svg fill="none" viewBox="0 0 11 9" id="check" xmlns="http://www.w3.org/2000/svg">
      <path d="M4 5.586 1.707 3.293.293 4.707 4 8.414l6.207-6.207L8.793.793 4 5.586Z" fill="currentColor" />
   </svg>
   <svg fill="none" viewBox="0 0 24 24" id="chevron-down" xmlns="http://www.w3.org/2000/svg">
      <path d="m19.92 8.95-6.52 6.52c-.77.77-2.03.77-2.8 0L4.08 8.95" stroke="currentColor" stroke-width="1.5"
         stroke-miterlimit="10" stroke-linecap="round" stroke-linejoin="round" />
   </svg>
   <svg fill="none" viewBox="0 0 19 25" id="download" xmlns="http://www.w3.org/2000/svg">
      <mask id="ea" fill="currentColor">
         <path d="M1.05.541h17.484v24.027H1.05V.54Z" />
      </mask>
      <path d="M18.534 24.568v-1.2H1.05v2.4h17.484v-1.2Z" fill="currentColor" mask="url(#ea)" />
      <path fill="currentColor" stroke="currentColor" stroke-width=".5" d="M10.252.541v.92h-.92v-.92z" />
      <path fill-rule="evenodd" clip-rule="evenodd"
         d="m1.173 12.123 8.322 8.322a.42.42 0 0 0 .594 0l8.322-8.322a.42.42 0 0 0-.594-.595l-7.605 7.605V3.462h-.84v15.67l-7.605-7.604a.42.42 0 1 0-.594.595Z"
         fill="currentColor" stroke="currentColor" stroke-width=".5" />
   </svg>
   <svg fill="none" viewBox="0 0 35 35" id="info" xmlns="http://www.w3.org/2000/svg">
      <path
         d="M17.188 2.966c-7.811 0-14.167 6.355-14.167 14.167 0 7.812 6.356 14.167 14.167 14.167 7.812 0 14.167-6.355 14.167-14.167 0-7.812-6.355-14.167-14.167-14.167Zm0 25.5c-6.249 0-11.333-5.084-11.333-11.333 0-6.249 5.084-11.333 11.333-11.333 6.25 0 11.334 5.084 11.334 11.333 0 6.249-5.085 11.333-11.334 11.333Z"
         fill="currentColor" />
      <path d="M15.771 15.716h2.834v8.5H15.77v-8.5Zm0-5.667h2.834v2.834H15.77v-2.834Z" fill="currentColor" />
   </svg>
   <svg fill="none" viewBox="0 0 21 20" id="telegram" xmlns="http://www.w3.org/2000/svg">
      <path
         d="M20.612.687A1.825 1.825 0 0 0 19.157 0c-.377 0-.767.103-1.16.304L1.257 8.887c-1.192.61-1.273 1.53-1.254 1.897.02.37.202 1.274 1.449 1.76l2.138.828c.405.157.86.239 1.348.239.077 0 .152-.01.227-.015-.03.038-.064.065-.092.105-.398.582-.418 1.374-.058 2.224l.017.04c.633 1.37 1.338 2.918 1.421 3.132.21.534.744.903 1.33.903.903 0 1.17-.425 2.65-2.776.115-.172.37-.574.413-1.083.174.07.334.132.474.187l2.374.94c.476.189.891.356 1.11.447a1.448 1.448 0 0 0 .74.203c1.077 0 1.336-.914 1.473-1.402.069-.24.163-.576.266-.947l3.615-12.988c.274-.98-.062-1.607-.285-1.894ZM9.242 16.481s-1.341 2.134-1.455 2.134c-.002 0-.004-.002-.006-.004-.131-.346-1.457-3.218-1.457-3.218-.245-.576-.2-1.068.22-1.068a.9.9 0 0 1 .332.075l1.029.524c.171.115.36.214.566.293l.051.02.097.047c.795.413 1.047.562.623 1.197ZM19.534 2.218l-3.613 12.987c-.203.73-.375 1.33-.377 1.33a.052.052 0 0 1-.006-.017c0-.004-.59-.24-1.31-.528l-2.371-.944c-.72-.285-1.901-.746-2.626-1.02l-.12-.047-.443-.224c-.44-.329-.478-.871-.037-1.33L15.97 4.74c.295-.308.405-.465.342-.465-.051 0-.214.102-.486.312L6.54 11.746c-.405.308-1.02.482-1.599.482a2.34 2.34 0 0 1-.829-.14l-2.138-.828c-.722-.278-.75-.796-.063-1.15l16.743-8.583c.192-.098.362-.144.503-.144.36 0 .525.308.377.836Z"
         fill="currentColor" />
   </svg>
   <svg fill="none" viewBox="0 0 22 22" id="whatsapp" xmlns="http://www.w3.org/2000/svg">
      <path fill-rule="evenodd" clip-rule="evenodd"
         d="M18.795 3.197A10.91 10.91 0 0 0 11.045 0C5.009 0 .096 4.89.093 10.9c-.001 1.922.503 3.798 1.462 5.45L0 22l5.807-1.516c1.6.868 3.401 1.326 5.235 1.327h.004c6.037 0 10.952-4.89 10.954-10.902a10.81 10.81 0 0 0-3.205-7.712ZM11.046 19.97h-.004a9.124 9.124 0 0 1-4.634-1.263l-.332-.197-3.446.9.92-3.344-.217-.342a9.008 9.008 0 0 1-1.392-4.822c.002-4.996 4.087-9.06 9.109-9.06 2.431 0 4.717.944 6.436 2.657a8.985 8.985 0 0 1 2.665 6.41c-.003 4.996-4.087 9.06-9.105 9.06Zm4.994-6.786c-.274-.137-1.62-.796-1.87-.887-.251-.09-.434-.136-.616.137s-.707.886-.867 1.068c-.16.182-.319.204-.593.068-.273-.136-1.155-.424-2.2-1.352-.814-.722-1.364-1.614-1.523-1.887-.16-.273-.017-.42.12-.556.123-.122.273-.318.41-.477.137-.16.183-.273.274-.455.091-.181.046-.34-.023-.477-.068-.136-.616-1.477-.844-2.022-.222-.531-.448-.46-.616-.468a11.02 11.02 0 0 0-.524-.01c-.183 0-.48.069-.73.341-.25.273-.958.932-.958 2.273 0 1.34.98 2.636 1.118 2.818.136.181 1.93 2.933 4.675 4.113.653.28 1.163.448 1.56.574.656.207 1.253.178 1.724.107.526-.078 1.62-.659 1.848-1.295.228-.636.228-1.182.16-1.295-.069-.114-.251-.182-.525-.318Z"
         fill="currentColor" />
   </svg>
   <svg fill="none" viewBox="0 0 14 16" id="play" xmlns="http://www.w3.org/2000/svg">
      <path
         d="M13.25 8.833a.5.5 0 0 0 0-.865L2 1.472a.5.5 0 0 0-.75.433v12.99a.5.5 0 0 0 .687.464L2 15.328l11.25-6.495Z"
         stroke="currentColor" />
   </svg>
   <svg fill="none" viewBox="0 0 24 24" id="square-check" xmlns="http://www.w3.org/2000/svg">
      <path
         d="M16 2H8C4.691 2 2 4.691 2 8v13a1 1 0 0 0 1 1h13c3.309 0 6-2.691 6-6V8c0-3.309-2.691-6-6-6Zm4 14c0 2.206-1.794 4-4 4H4V8c0-2.206 1.794-4 4-4h8c2.206 0 4 1.794 4 4v8Z"
         fill="currentColor" />
      <path d="m11 13.586-2.293-2.293-1.414 1.414L11 16.414l6.207-6.207-1.414-1.414L11 13.586Z" fill="currentColor" />
   </svg>
   <svg fill="none" viewBox="0 0 20 19" id="star" xmlns="http://www.w3.org/2000/svg">
      <path d="m10 0 2.245 6.91h7.266l-5.878 4.27 2.245 6.91L10 13.82l-5.878 4.27 2.245-6.91L.49 6.91h7.266L10 0Z"
         fill="currentColor" />
   </svg>
   <svg fill="none" viewBox="0 0 24 24" id="user" xmlns="http://www.w3.org/2000/svg">
      <path
         d="M12.159 10.87c-.1-.01-.22-.01-.33 0a4.42 4.42 0 0 1-4.27-4.43c0-2.45 1.98-4.44 4.44-4.44a4.435 4.435 0 0 1 .16 8.87ZM7.159 14.56c-2.42 1.62-2.42 4.26 0 5.87 2.75 1.84 7.26 1.84 10.01 0 2.42-1.62 2.42-4.26 0-5.87-2.74-1.83-7.25-1.83-10.01 0Z"
         stroke="currentColor" stroke-width="1.5" stroke-linecap="round" stroke-linejoin="round" />
   </svg>
</svg>