<svg width="49" height="50" viewBox="0 0 49 50" fill="none" xmlns="http://www.w3.org/2000/svg">
<rect y="0.188477" width="49" height="49" rx="10" fill="#F7F9FB"/>
<rect x="0.5" y="0.688477" width="48" height="48" rx="9.5" stroke="#86BCE8" stroke-opacity="0.3"/>
<path fill-rule="evenodd" clip-rule="evenodd" d="M30 14.1885C30.7956 14.1885 31.5587 14.5045 32.1213 15.0672C32.6839 15.6298 33 16.3928 33 17.1885C33.7956 17.1885 34.5587 17.5045 35.1213 18.0672C35.6839 18.6298 36 19.3928 36 20.1885V32.1885C36 32.9841 35.6839 33.7472 35.1213 34.3098C34.5587 34.8724 33.7956 35.1885 33 35.1885H18C17.2044 35.1885 16.4413 34.8724 15.8787 34.3098C15.3161 33.7472 15 32.9841 15 32.1885C14.2044 32.1885 13.4413 31.8724 12.8787 31.3098C12.3161 30.7472 12 29.9841 12 29.1885V17.1885C12 16.3928 12.3161 15.6298 12.8787 15.0672C13.4413 14.5045 14.2044 14.1885 15 14.1885H30ZM15 30.6885V20.1885C15 19.3928 15.3161 18.6298 15.8787 18.0672C16.4413 17.5045 17.2044 17.1885 18 17.1885H31.5C31.5 16.7907 31.342 16.4091 31.0607 16.1278C30.7794 15.8465 30.3978 15.6885 30 15.6885H15C14.6022 15.6885 14.2206 15.8465 13.9393 16.1278C13.658 16.4091 13.5 16.7907 13.5 17.1885V29.1885C13.5 29.5863 13.658 29.9678 13.9393 30.2491C14.2206 30.5304 14.6022 30.6885 15 30.6885ZM16.5 24.6885V32.1885C16.5 32.5863 16.658 32.9678 16.9393 33.2491C17.2206 33.5304 17.6022 33.6885 18 33.6885H33C33.3978 33.6885 33.7794 33.5304 34.0607 33.2491C34.342 32.9678 34.5 32.5863 34.5 32.1885V24.6885H16.5ZM34.5 23.1885H16.5V20.1885C16.5 19.7907 16.658 19.4091 16.9393 19.1278C17.2206 18.8465 17.6022 18.6885 18 18.6885H33C33.3978 18.6885 33.7794 18.8465 34.0607 19.1278C34.342 19.4091 34.5 19.7907 34.5 20.1885V23.1885ZM18.75 21.6885C18.9489 21.6885 19.1397 21.6095 19.2803 21.4688C19.421 21.3282 19.5 21.1374 19.5 20.9385C19.5 20.7396 19.421 20.5488 19.2803 20.4081C19.1397 20.2675 18.9489 20.1885 18.75 20.1885C18.5511 20.1885 18.3603 20.2675 18.2197 20.4081C18.079 20.5488 18 20.7396 18 20.9385C18 21.1374 18.079 21.3282 18.2197 21.4688C18.3603 21.6095 18.5511 21.6885 18.75 21.6885ZM21 21.6885C21.1989 21.6885 21.3897 21.6095 21.5303 21.4688C21.671 21.3282 21.75 21.1374 21.75 20.9385C21.75 20.7396 21.671 20.5488 21.5303 20.4081C21.3897 20.2675 21.1989 20.1885 21 20.1885C20.8011 20.1885 20.6103 20.2675 20.4697 20.4081C20.329 20.5488 20.25 20.7396 20.25 20.9385C20.25 21.1374 20.329 21.3282 20.4697 21.4688C20.6103 21.6095 20.8011 21.6885 21 21.6885ZM24 20.9385C24 21.1374 23.921 21.3282 23.7803 21.4688C23.6397 21.6095 23.4489 21.6885 23.25 21.6885C23.0511 21.6885 22.8603 21.6095 22.7197 21.4688C22.579 21.3282 22.5 21.1374 22.5 20.9385C22.5 20.7396 22.579 20.5488 22.7197 20.4081C22.8603 20.2675 23.0511 20.1885 23.25 20.1885C23.4489 20.1885 23.6397 20.2675 23.7803 20.4081C23.921 20.5488 24 20.7396 24 20.9385Z" fill="#86BCE8"/>
</svg>
