<svg width="50" height="50" viewBox="0 0 50 50" fill="none" xmlns="http://www.w3.org/2000/svg">
<rect x="0.5" y="0.188477" width="49" height="49" rx="10" fill="#F7F9FB"/>
<rect x="1" y="0.688477" width="48" height="48" rx="9.5" stroke="#86BCE8" stroke-opacity="0.3"/>
<g clip-path="url(#clip0_4005_7283)">
<path fill-rule="evenodd" clip-rule="evenodd" d="M20.0009 28.4384C20.0009 28.2394 20.08 28.0487 20.2206 27.908C20.3613 27.7674 20.552 27.6884 20.7509 27.6884H34.2509C34.4499 27.6884 34.6406 27.7674 34.7813 27.908C34.9219 28.0487 35.0009 28.2394 35.0009 28.4384C35.0009 28.6373 34.9219 28.828 34.7813 28.9687C34.6406 29.1093 34.4499 29.1884 34.2509 29.1884H20.7509C20.552 29.1884 20.3613 29.1093 20.2206 28.9687C20.08 28.828 20.0009 28.6373 20.0009 28.4384ZM20.0009 22.4384C20.0009 22.2394 20.08 22.0487 20.2206 21.908C20.3613 21.7674 20.552 21.6884 20.7509 21.6884H34.2509C34.4499 21.6884 34.6406 21.7674 34.7813 21.908C34.9219 22.0487 35.0009 22.2394 35.0009 22.4384C35.0009 22.6373 34.9219 22.828 34.7813 22.9687C34.6406 23.1093 34.4499 23.1884 34.2509 23.1884H20.7509C20.552 23.1884 20.3613 23.1093 20.2206 22.9687C20.08 22.828 20.0009 22.6373 20.0009 22.4384ZM20.0009 16.4384C20.0009 16.2394 20.08 16.0487 20.2206 15.908C20.3613 15.7674 20.552 15.6884 20.7509 15.6884H34.2509C34.4499 15.6884 34.6406 15.7674 34.7813 15.908C34.9219 16.0487 35.0009 16.2394 35.0009 16.4384C35.0009 16.6373 34.9219 16.828 34.7813 16.9687C34.6406 17.1093 34.4499 17.1884 34.2509 17.1884H20.7509C20.552 17.1884 20.3613 17.1093 20.2206 16.9687C20.08 16.828 20.0009 16.6373 20.0009 16.4384ZM18.2819 14.4074C18.3518 14.477 18.4072 14.5598 18.445 14.6509C18.4828 14.742 18.5023 14.8397 18.5023 14.9384C18.5023 15.037 18.4828 15.1347 18.445 15.2258C18.4072 15.3169 18.3518 15.3997 18.2819 15.4694L16.0319 17.7194C15.9623 17.7892 15.8795 17.8446 15.7884 17.8824C15.6973 17.9202 15.5996 17.9397 15.5009 17.9397C15.4023 17.9397 15.3046 17.9202 15.2135 17.8824C15.1224 17.8446 15.0396 17.7892 14.9699 17.7194L14.2199 16.9694C14.1502 16.8996 14.0949 16.8168 14.0572 16.7257C14.0194 16.6346 14 16.537 14 16.4384C14 16.3397 14.0194 16.2421 14.0572 16.151C14.0949 16.0599 14.1502 15.9771 14.2199 15.9074C14.2897 15.8376 14.3725 15.7823 14.4636 15.7446C14.5547 15.7068 14.6523 15.6874 14.7509 15.6874C14.8496 15.6874 14.9472 15.7068 15.0383 15.7446C15.1294 15.7823 15.2122 15.8376 15.2819 15.9074L15.5009 16.1279L17.2199 14.4074C17.2896 14.3375 17.3724 14.2821 17.4635 14.2443C17.5546 14.2065 17.6523 14.187 17.7509 14.187C17.8496 14.187 17.9473 14.2065 18.0384 14.2443C18.1295 14.2821 18.2123 14.3375 18.2819 14.4074ZM18.2819 20.4074C18.3518 20.477 18.4072 20.5598 18.445 20.6509C18.4828 20.742 18.5023 20.8397 18.5023 20.9384C18.5023 21.037 18.4828 21.1347 18.445 21.2258C18.4072 21.3169 18.3518 21.3997 18.2819 21.4694L16.0319 23.7194C15.9623 23.7892 15.8795 23.8446 15.7884 23.8824C15.6973 23.9202 15.5996 23.9397 15.5009 23.9397C15.4023 23.9397 15.3046 23.9202 15.2135 23.8824C15.1224 23.8446 15.0396 23.7892 14.9699 23.7194L14.2199 22.9694C14.0791 22.8285 14 22.6375 14 22.4384C14 22.2392 14.0791 22.0482 14.2199 21.9074C14.3608 21.7665 14.5518 21.6874 14.7509 21.6874C14.9501 21.6874 15.1411 21.7665 15.2819 21.9074L15.5009 22.1279L17.2199 20.4074C17.2896 20.3375 17.3724 20.2821 17.4635 20.2443C17.5546 20.2065 17.6523 20.187 17.7509 20.187C17.8496 20.187 17.9473 20.2065 18.0384 20.2443C18.1295 20.2821 18.2123 20.3375 18.2819 20.4074ZM18.2819 26.4074C18.3518 26.477 18.4072 26.5598 18.445 26.6509C18.4828 26.742 18.5023 26.8397 18.5023 26.9384C18.5023 27.037 18.4828 27.1347 18.445 27.2258C18.4072 27.3169 18.3518 27.3997 18.2819 27.4694L16.0319 29.7194C15.9623 29.7892 15.8795 29.8446 15.7884 29.8824C15.6973 29.9202 15.5996 29.9397 15.5009 29.9397C15.4023 29.9397 15.3046 29.9202 15.2135 29.8824C15.1224 29.8446 15.0396 29.7892 14.9699 29.7194L14.2199 28.9694C14.0791 28.8285 14 28.6375 14 28.4384C14 28.2392 14.0791 28.0482 14.2199 27.9074C14.3608 27.7665 14.5518 27.6874 14.7509 27.6874C14.9501 27.6874 15.1411 27.7665 15.2819 27.9074L15.5009 28.1279L17.2199 26.4074C17.2896 26.3375 17.3724 26.2821 17.4635 26.2443C17.5546 26.2065 17.6523 26.187 17.7509 26.187C17.8496 26.187 17.9473 26.2065 18.0384 26.2443C18.1295 26.2821 18.2123 26.3375 18.2819 26.4074Z" fill="#86BCE8"/>
<path d="M20.2206 27.908C20.08 28.0487 20.0009 28.2394 20.0009 28.4384C20.0009 28.6373 20.08 28.828 20.2206 28.9687C20.3613 29.1093 20.552 29.1884 20.7509 29.1884H34.2509C34.4499 29.1884 34.6406 29.1093 34.7813 28.9687C34.9219 28.828 35.0009 28.6373 35.0009 28.4384C35.0009 28.2394 34.9219 28.0487 34.7813 27.908C34.6406 27.7674 34.4499 27.6884 34.2509 27.6884H20.7509C20.552 27.6884 20.3613 27.7674 20.2206 27.908Z" fill="#86BCE8"/>
<path d="M18.445 26.6509C18.4072 26.5598 18.3518 26.477 18.2819 26.4074C18.2123 26.3375 18.1295 26.2821 18.0384 26.2443C17.9473 26.2065 17.8496 26.187 17.7509 26.187C17.6523 26.187 17.5546 26.2065 17.4635 26.2443C17.3724 26.2821 17.2896 26.3375 17.2199 26.4074L15.5009 28.1279L15.2819 27.9074C15.1411 27.7665 14.9501 27.6874 14.7509 27.6874C14.5518 27.6874 14.3608 27.7665 14.2199 27.9074C14.0791 28.0482 14 28.2392 14 28.4384C14 28.6375 14.0791 28.8285 14.2199 28.9694L14.9699 29.7194C15.0396 29.7892 15.1224 29.8446 15.2135 29.8824C15.3046 29.9202 15.4023 29.9397 15.5009 29.9397C15.5996 29.9397 15.6973 29.9202 15.7884 29.8824C15.8795 29.8446 15.9623 29.7892 16.0319 29.7194L18.2819 27.4694C18.3518 27.3997 18.4072 27.3169 18.445 27.2258C18.4828 27.1347 18.5023 27.037 18.5023 26.9384C18.5023 26.8397 18.4828 26.742 18.445 26.6509Z" fill="#86BCE8"/>
<path fill-rule="evenodd" clip-rule="evenodd" d="M20.0009 40.4388C20.0009 40.2399 20.08 40.0492 20.2206 39.9085C20.3613 39.7679 20.552 39.6888 20.7509 39.6888H34.2509C34.4499 39.6888 34.6406 39.7679 34.7813 39.9085C34.9219 40.0492 35.0009 40.2399 35.0009 40.4388C35.0009 40.6378 34.9219 40.8285 34.7813 40.9692C34.6406 41.1098 34.4499 41.1888 34.2509 41.1888H20.7509C20.552 41.1888 20.3613 41.1098 20.2206 40.9692C20.08 40.8285 20.0009 40.6378 20.0009 40.4388ZM20.0009 34.4388C20.0009 34.2399 20.08 34.0492 20.2206 33.9085C20.3613 33.7679 20.552 33.6888 20.7509 33.6888H34.2509C34.4499 33.6888 34.6406 33.7679 34.7813 33.9085C34.9219 34.0492 35.0009 34.2399 35.0009 34.4388C35.0009 34.6378 34.9219 34.8285 34.7813 34.9692C34.6406 35.1098 34.4499 35.1888 34.2509 35.1888H20.7509C20.552 35.1888 20.3613 35.1098 20.2206 34.9692C20.08 34.8285 20.0009 34.6378 20.0009 34.4388ZM20.0009 28.4388C20.0009 28.2399 20.08 28.0492 20.2206 27.9085C20.3613 27.7679 20.552 27.6888 20.7509 27.6888H34.2509C34.4499 27.6888 34.6406 27.7679 34.7813 27.9085C34.9219 28.0492 35.0009 28.2399 35.0009 28.4388C35.0009 28.6378 34.9219 28.8285 34.7813 28.9692C34.6406 29.1098 34.4499 29.1888 34.2509 29.1888H20.7509C20.552 29.1888 20.3613 29.1098 20.2206 28.9692C20.08 28.8285 20.0009 28.6378 20.0009 28.4388ZM18.2819 26.4078C18.3518 26.4775 18.4072 26.5603 18.445 26.6514C18.4828 26.7425 18.5023 26.8402 18.5023 26.9388C18.5023 27.0375 18.4828 27.1352 18.445 27.2263C18.4072 27.3174 18.3518 27.4002 18.2819 27.4698L16.0319 29.7198C15.9623 29.7897 15.8795 29.8451 15.7884 29.8829C15.6973 29.9207 15.5996 29.9402 15.5009 29.9402C15.4023 29.9402 15.3046 29.9207 15.2135 29.8829C15.1224 29.8451 15.0396 29.7897 14.9699 29.7198L14.2199 28.9698C14.1502 28.9001 14.0949 28.8173 14.0572 28.7262C14.0194 28.6351 14 28.5375 14 28.4388C14 28.3402 14.0194 28.2426 14.0572 28.1515C14.0949 28.0604 14.1502 27.9776 14.2199 27.9078C14.2897 27.8381 14.3725 27.7828 14.4636 27.7451C14.5547 27.7073 14.6523 27.6879 14.7509 27.6879C14.8496 27.6879 14.9472 27.7073 15.0383 27.7451C15.1294 27.7828 15.2122 27.8381 15.2819 27.9078L15.5009 28.1283L17.2199 26.4078C17.2896 26.338 17.3724 26.2826 17.4635 26.2448C17.5546 26.207 17.6523 26.1875 17.7509 26.1875C17.8496 26.1875 17.9473 26.207 18.0384 26.2448C18.1295 26.2826 18.2123 26.338 18.2819 26.4078ZM18.2819 32.4078C18.3518 32.4775 18.4072 32.5603 18.445 32.6514C18.4828 32.7425 18.5023 32.8402 18.5023 32.9388C18.5023 33.0375 18.4828 33.1352 18.445 33.2263C18.4072 33.3174 18.3518 33.4002 18.2819 33.4698L16.0319 35.7198C15.9623 35.7897 15.8795 35.8451 15.7884 35.8829C15.6973 35.9207 15.5996 35.9402 15.5009 35.9402C15.4023 35.9402 15.3046 35.9207 15.2135 35.8829C15.1224 35.8451 15.0396 35.7897 14.9699 35.7198L14.2199 34.9698C14.0791 34.829 14 34.638 14 34.4388C14 34.2397 14.0791 34.0487 14.2199 33.9078C14.3608 33.767 14.5518 33.6879 14.7509 33.6879C14.9501 33.6879 15.1411 33.767 15.2819 33.9078L15.5009 34.1283L17.2199 32.4078C17.2896 32.338 17.3724 32.2826 17.4635 32.2448C17.5546 32.207 17.6523 32.1875 17.7509 32.1875C17.8496 32.1875 17.9473 32.207 18.0384 32.2448C18.1295 32.2826 18.2123 32.338 18.2819 32.4078ZM18.2819 38.4078C18.3518 38.4775 18.4072 38.5603 18.445 38.6514C18.4828 38.7425 18.5023 38.8402 18.5023 38.9388C18.5023 39.0375 18.4828 39.1352 18.445 39.2263C18.4072 39.3174 18.3518 39.4002 18.2819 39.4698L16.0319 41.7198C15.9623 41.7897 15.8795 41.8451 15.7884 41.8829C15.6973 41.9207 15.5996 41.9402 15.5009 41.9402C15.4023 41.9402 15.3046 41.9207 15.2135 41.8829C15.1224 41.8451 15.0396 41.7897 14.9699 41.7198L14.2199 40.9698C14.0791 40.829 14 40.638 14 40.4388C14 40.2397 14.0791 40.0487 14.2199 39.9078C14.3608 39.767 14.5518 39.6879 14.7509 39.6879C14.9501 39.6879 15.1411 39.767 15.2819 39.9078L15.5009 40.1283L17.2199 38.4078C17.2896 38.338 17.3724 38.2826 17.4635 38.2448C17.5546 38.207 17.6523 38.1875 17.7509 38.1875C17.8496 38.1875 17.9473 38.207 18.0384 38.2448C18.1295 38.2826 18.2123 38.338 18.2819 38.4078Z" fill="#86BCE8"/>
<path d="M20.2206 39.9085C20.08 40.0492 20.0009 40.2399 20.0009 40.4388C20.0009 40.6378 20.08 40.8285 20.2206 40.9692C20.3613 41.1098 20.552 41.1888 20.7509 41.1888H34.2509C34.4499 41.1888 34.6406 41.1098 34.7813 40.9692C34.9219 40.8285 35.0009 40.6378 35.0009 40.4388C35.0009 40.2399 34.9219 40.0492 34.7813 39.9085C34.6406 39.7679 34.4499 39.6888 34.2509 39.6888H20.7509C20.552 39.6888 20.3613 39.7679 20.2206 39.9085Z" fill="#86BCE8"/>
<path d="M18.445 38.6514C18.4072 38.5603 18.3518 38.4775 18.2819 38.4078C18.2123 38.338 18.1295 38.2826 18.0384 38.2448C17.9473 38.207 17.8496 38.1875 17.7509 38.1875C17.6523 38.1875 17.5546 38.207 17.4635 38.2448C17.3724 38.2826 17.2896 38.338 17.2199 38.4078L15.5009 40.1283L15.2819 39.9078C15.1411 39.767 14.9501 39.6879 14.7509 39.6879C14.5518 39.6879 14.3608 39.767 14.2199 39.9078C14.0791 40.0487 14 40.2397 14 40.4388C14 40.638 14.0791 40.829 14.2199 40.9698L14.9699 41.7198C15.0396 41.7897 15.1224 41.8451 15.2135 41.8829C15.3046 41.9207 15.4023 41.9402 15.5009 41.9402C15.5996 41.9402 15.6973 41.9207 15.7884 41.8829C15.8795 41.8451 15.9623 41.7897 16.0319 41.7198L18.2819 39.4698C18.3518 39.4002 18.4072 39.3174 18.445 39.2263C18.4828 39.1352 18.5023 39.0375 18.5023 38.9388C18.5023 38.8402 18.4828 38.7425 18.445 38.6514Z" fill="#86BCE8"/>
</g>
<defs>
<clipPath id="clip0_4005_7283">
<rect width="24" height="27" fill="white" transform="translate(12.5 11.1885)"/>
</clipPath>
</defs>
</svg>
