<svg width="49" height="50" viewBox="0 0 49 50" fill="none" xmlns="http://www.w3.org/2000/svg">
<rect y="0.188477" width="49" height="49" rx="10" fill="#F7F9FB"/>
<rect x="0.5" y="0.688477" width="48" height="48" rx="9.5" stroke="#86BCE8" stroke-opacity="0.3"/>
<g clip-path="url(#clip0_4005_6932)">
<path d="M19.5 24.5635C19.5 24.8619 19.3815 25.148 19.1705 25.359C18.9595 25.57 18.6734 25.6885 18.375 25.6885C18.0766 25.6885 17.7905 25.57 17.5795 25.359C17.3685 25.148 17.25 24.8619 17.25 24.5635C17.25 24.2651 17.3685 23.979 17.5795 23.768C17.7905 23.557 18.0766 23.4385 18.375 23.4385C18.6734 23.4385 18.9595 23.557 19.1705 23.768C19.3815 23.979 19.5 24.2651 19.5 24.5635ZM21.207 22.3195C22.0977 22.0652 23.0197 21.937 23.946 21.9385C24.945 21.9385 25.9005 22.084 26.7855 22.348C26.9746 22.4002 27.1767 22.3761 27.3483 22.2811C27.5199 22.186 27.6475 22.0275 27.7036 21.8395C27.7597 21.6516 27.7399 21.4491 27.6485 21.2755C27.5571 21.1019 27.4013 20.971 27.2145 20.911C26.1537 20.5957 25.0527 20.4366 23.946 20.4385C22.845 20.4385 21.7845 20.593 20.793 20.8765C20.6016 20.9314 20.4399 21.0601 20.3435 21.2342C20.247 21.4083 20.2236 21.6136 20.2785 21.805C20.3334 21.9963 20.4621 22.1581 20.6362 22.2545C20.8103 22.351 21.0156 22.3744 21.207 22.3195Z" fill="#86BCE8"/>
<path fill-rule="evenodd" clip-rule="evenodd" d="M23.9459 17.479C19.4804 17.479 15.5894 20.035 14.4659 23.6665H13.6409C13.4222 23.6667 13.2063 23.7148 13.0081 23.8073C12.8099 23.8998 12.6344 24.0345 12.4938 24.202C12.3532 24.3695 12.2509 24.5657 12.1941 24.7769C12.1373 24.988 12.1273 25.2091 12.1649 25.4245L12.5459 27.6145C12.6367 28.1366 12.9089 28.6099 13.3145 28.951C13.72 29.2921 14.233 29.4791 14.7629 29.479H15.1574C15.6074 30.2485 16.1894 30.946 16.8749 31.552L15.7814 35.2675C15.7486 35.3794 15.7422 35.4974 15.7629 35.6121C15.7836 35.7269 15.8308 35.8352 15.9007 35.9286C15.9705 36.0219 16.0612 36.0976 16.1655 36.1498C16.2698 36.202 16.3848 36.2291 16.5014 36.229H19.5014C19.6562 36.229 19.8072 36.1812 19.9336 36.092C20.0601 36.0029 20.1559 35.8768 20.2079 35.731L20.9309 33.7045C21.8834 33.964 22.8959 34.105 23.9474 34.105C25.0079 34.105 26.0294 33.9625 26.9894 33.697L27.8039 35.755C27.8593 35.8948 27.9554 36.0148 28.0798 36.0993C28.2041 36.1838 28.3511 36.229 28.5014 36.229H31.5014C31.6185 36.2289 31.7338 36.2014 31.8383 36.1487C31.9428 36.096 32.0336 36.0196 32.1032 35.9256C32.1729 35.8315 32.2196 35.7225 32.2396 35.6072C32.2596 35.4919 32.2524 35.3735 32.2184 35.2615L31.0769 31.5025C32.7149 30.031 33.7499 28.027 33.7499 25.792C33.7499 25.5745 33.7394 25.357 33.7199 25.1455C34.1114 24.9805 34.4819 24.7465 34.7774 24.4795C35.2499 24.9385 35.9999 24.9385 35.9999 23.854C35.9999 24.1885 35.2499 24.1885 35.3084 23.815C35.3714 23.6946 35.4169 23.5658 35.4434 23.4325C35.4787 23.2588 35.4694 23.0789 35.4164 22.9098C35.3635 22.7406 35.2685 22.5876 35.1404 22.465C35.0054 22.3258 34.8276 22.2357 34.6355 22.2091C34.4433 22.1824 34.2478 22.2208 34.0799 22.318C33.9256 22.4033 33.794 22.5244 33.6961 22.671C33.5982 22.8177 33.5369 22.9857 33.5174 23.161C33.4814 23.5255 33.6404 23.881 33.9974 24.142C33.8736 24.2276 33.7437 24.3043 33.6089 24.3715C32.8079 20.3755 28.6829 17.479 23.9459 17.479ZM15.7739 24.5785C16.4564 21.4795 19.7744 18.979 23.9459 18.979C28.6649 18.979 32.2499 22.15 32.2499 25.792C32.2499 27.673 31.3139 29.407 29.7449 30.664C29.6283 30.7578 29.5424 30.8844 29.4983 31.0274C29.4542 31.1704 29.4539 31.3233 29.4974 31.4665L30.4874 34.729H29.0099L28.1249 32.4985C28.0537 32.3188 27.9158 32.1735 27.74 32.093C27.5642 32.0125 27.3641 32.003 27.1814 32.0665C26.1899 32.4115 25.0964 32.605 23.9459 32.605C22.8449 32.6078 21.7512 32.4258 20.7104 32.0665C20.5236 32.0016 20.3187 32.013 20.1403 32.0985C19.9619 32.1839 19.8245 32.3363 19.7579 32.5225L18.9704 34.729H17.5019L18.4514 31.504C18.4938 31.3603 18.4921 31.2072 18.4467 31.0644C18.4012 30.9217 18.3141 30.7958 18.1964 30.703C17.3939 30.0818 16.7366 29.293 16.2704 28.3915C16.208 28.2676 16.1124 28.1634 15.9943 28.0906C15.8762 28.0178 15.7402 27.9791 15.6014 27.979H14.7614C14.585 27.9788 14.4143 27.9164 14.2794 27.8029C14.1444 27.6893 14.0538 27.5318 14.0234 27.358L13.6424 25.168H15.0419C15.2129 25.1679 15.3786 25.1093 15.5117 25.0021C15.6448 24.8949 15.7374 24.7455 15.7739 24.5785ZM34.7054 23.293C34.6787 23.407 34.6287 23.5143 34.5584 23.608C34.536 23.5963 34.514 23.5838 34.4924 23.5705C34.2734 23.4355 34.2569 23.308 34.2644 23.236C34.2718 23.1822 34.2915 23.1308 34.3219 23.0858C34.3524 23.0408 34.3927 23.0034 34.4399 22.9765C34.5134 22.936 34.5599 22.945 34.6094 22.9945C34.6511 23.0308 34.6821 23.0778 34.699 23.1304C34.716 23.183 34.7182 23.2392 34.7054 23.293Z" fill="#86BCE8"/>
<circle cx="24" cy="12.6885" r="1.8" stroke="#86BCE8" stroke-width="1.4"/>
</g>
<defs>
<clipPath id="clip0_4005_6932">
<rect width="24" height="29" fill="white" transform="translate(12 10.1885)"/>
</clipPath>
</defs>
</svg>
