<svg width="49" height="50" viewBox="0 0 49 50" fill="none" xmlns="http://www.w3.org/2000/svg">
<rect y="0.582031" width="49" height="49" rx="10" fill="#F7F9FB"/>
<rect x="0.5" y="1.08203" width="48" height="48" rx="9.5" stroke="#86BCE8" stroke-opacity="0.3"/>
<path d="M28.5 16.082C28.5 15.6842 28.658 15.3027 28.9393 15.0214C29.2206 14.7401 29.6022 14.582 30 14.582H33C33.3978 14.582 33.7794 14.7401 34.0607 15.0214C34.342 15.3027 34.5 15.6842 34.5 16.082V34.082H35.25C35.4489 34.082 35.6397 34.161 35.7803 34.3017C35.921 34.4424 36 34.6331 36 34.832C36 35.0309 35.921 35.2217 35.7803 35.3624C35.6397 35.503 35.4489 35.582 35.25 35.582H12.75C12.5511 35.582 12.3603 35.503 12.2197 35.3624C12.079 35.2217 12 35.0309 12 34.832C12 34.6331 12.079 34.4424 12.2197 34.3017C12.3603 34.161 12.5511 34.082 12.75 34.082H13.5V29.582C13.5 29.1842 13.658 28.8027 13.9393 28.5214C14.2206 28.2401 14.6022 28.082 15 28.082H18C18.3978 28.082 18.7794 28.2401 19.0607 28.5214C19.342 28.8027 19.5 29.1842 19.5 29.582V34.082H21V23.582C21 23.1842 21.158 22.8027 21.4393 22.5214C21.7206 22.2401 22.1022 22.082 22.5 22.082H25.5C25.8978 22.082 26.2794 22.2401 26.5607 22.5214C26.842 22.8027 27 23.1842 27 23.582V34.082H28.5V16.082ZM30 34.082H33V16.082H30V34.082ZM25.5 34.082V23.582H22.5V34.082H25.5ZM18 34.082V29.582H15V34.082H18Z" fill="#86BCE8"/>
</svg>
